<?xml version="1.0" standalone="no"?>
<!--Created with Sketsa SVG Editor (http://www.kiyut.com)-->
<svg contentScriptType="text/ecmascript" width="1000.0px" xmlns:xlink="http://www.w3.org/1999/xlink"
    baseProfile="full" zoomAndPan="magnify" contentStyleType="text/css" height="1200.0px"
    preserveAspectRatio="xMidYMid meet" xmlns="http://www.w3.org/2000/svg" version="1.0">
    <metadata id="I2CData" file="Codecs\AIC3111_USB_RECORD_Init.txt" dll="Codecs\AIC3XXX.DLL"/>
    <line y2="40.0" fill="none" x1="60.0" x2="175.0" y1="40.0" stroke="#000000"/>
    <polygon fill="none" points="175.0,40.0 187.5,32.5 187.5,47.5" stroke="#000000"/>
    <line y2="40.0" fill="none" x1="250.0" x2="187.5" y1="40.0" stroke="#000000"/>
    <text x="192.5" y="36.75"><tspan font-size="6" font-family="'Arial', 'Helvetica', sans-serif"
            xml:space="preserve">2V/2.5V/AVDD</tspan><tspan xml:space="preserve"> </tspan></text>
    <ellipse rx="1.25" fill="none" ry="1.25" cx="58.75" cy="40.0" stroke="#000000"/>
    <ellipse ActiveColor="0x00bb00bb" fill="none" rx="1.25" cx="58.75" ry="1.25" cy="97.5" stroke="#000000"
        active="1"/>
    <g>
        <line y2="127.5" fill="none" x1="160.0" x2="157.5" y1="125.0" stroke="#000000"/>
        <line y2="132.5" fill="none" x1="157.5" x2="162.5" y1="127.5" stroke="#000000"/>
        <line y2="137.5" fill="none" x1="162.5" x2="157.5" y1="132.5" stroke="#000000"/>
        <line y2="142.5" fill="none" x1="157.5" x2="162.5" y1="137.5" stroke="#000000"/>
        <line y2="145.0" fill="none" x1="162.5" x2="160.0" y1="142.5" stroke="#000000"/>
        <line y2="120.0" fill="none" x1="160.0" x2="160.0" y1="125.0" stroke="#000000"/>
        <line y2="150.0" fill="none" x1="160.0" x2="160.0" y1="145.0" stroke="#000000"/>
    </g>
    <g>
        <line y2="145.0" fill="none" x1="175.0" x2="172.5" stroke="#000000" y1="142.5"/>
        <line y2="142.5" fill="none" x1="170.0" x2="175.0" stroke="#000000" y1="137.5"/>
        <line y2="137.5" fill="none" x1="175.0" x2="170.0" stroke="#000000" y1="132.5"/>
        <line y2="132.5" fill="none" x1="170.0" x2="175.0" stroke="#000000" y1="127.5"/>
        <line y2="127.5" fill="none" x1="172.5" x2="170.0" stroke="#000000" y1="125.0"/>
        <line y2="120.0" fill="none" x1="172.5" x2="172.5" y1="125.0" stroke="#000000"/>
        <line y2="150.0" fill="none" x1="172.5" x2="172.5" y1="145.0" stroke="#000000"/>
    </g>
    <g>
        <line y2="145.0" fill="none" x1="187.5" x2="185.0" stroke="#000000" y1="142.5"/>
        <line y2="142.5" fill="none" x1="182.5" x2="187.5" stroke="#000000" y1="137.5"/>
        <line y2="137.5" fill="none" x1="187.5" x2="182.5" stroke="#000000" y1="132.5"/>
        <line y2="132.5" fill="none" x1="182.5" x2="187.5" stroke="#000000" y1="127.5"/>
        <line y2="127.5" fill="none" x1="185.0" x2="182.5" stroke="#000000" y1="125.0"/>
        <line y2="120.0" fill="none" x1="185.0" x2="185.0" y1="125.0" stroke="#000000"/>
        <line y2="150.0" fill="none" x1="185.0" x2="185.0" y1="145.0" stroke="#000000"/>
    </g>
    <ellipse rx="1.25" fill="none" ry="1.25" cx="160.0" cy="118.75" stroke="#000000"/>
    <ellipse rx="1.25" fill="none" ry="1.25" cx="172.5" cy="118.75" stroke="#000000"/>
    <ellipse rx="1.25" fill="none" ry="1.25" cx="185.0" cy="118.75" stroke="#000000"/>
    <ellipse ActiveColor="0x00bb00bb" fill="none" ID="100001" rx="1.25" cx="172.5" cy="97.5" ry="1.25"
        stroke="#000000"/>
    <line y2="150.0" fill="none" x1="160.0" x2="185.0" y1="150.0" stroke="#000000"/>
    <line y2="158.75" fill="none" x1="172.45833" x2="172.45833" y1="150.0" stroke="#000000"/>
    <line y2="158.75" fill="none" x1="168.70833" x2="176.20833" y1="158.75" stroke="#000000"/>
    <line y2="160.0" fill="none" x1="169.95833" x2="174.95833" y1="160.0" stroke="#000000"/>
    <line y2="161.25" fill="none" x1="171.20833" x2="173.70833" y1="161.25" stroke="#000000"/>
    <line y2="160.0" fill="none" x1="169.95833" x2="174.95833" stroke="#000000" y1="160.0"/>
    <line y2="161.25" fill="none" x1="171.20833" x2="173.70833" stroke="#000000" y1="161.25"/>
    <line y2="158.75" fill="none" x1="168.70833" x2="176.20833" stroke="#000000" y1="158.75"/>
    <ellipse rx="1.25" fill="none" ry="1.25" cx="172.5" cy="150.0" stroke="#000000"/>
    <line ActiveColor="0x00bb00bb" fill="none" x1="60.0" x2="128.75" y1="97.5" y2="97.5" stroke="#000000"
        active="1"/>
    <line ActiveColor="0x00bb00bb" fill="none" x1="150.0" x2="217.5" y1="97.5" y2="97.5" ID="100001"
        stroke="#000000"/>
    <polygon ActiveColor="0x00bb00bb" ID="100001" fill="none" points="217.5,112.5 217.5,82.5 
        242.5,97.5" stroke="#000000"/>
    <text x="154.25" y="169.25"><tspan font-size="6" font-family="'Arial', 'Helvetica', sans-serif"
            xml:space="preserve">10k</tspan><tspan xml:space="preserve"> </tspan></text>
    <text x="169.25" y="169.25"><tspan font-family="'Arial', 'Helvetica', sans-serif" font-size="6"
            xml:space="preserve">20k</tspan><tspan xml:space="preserve"> </tspan></text>
    <text x="184.25" y="169.25"><tspan font-family="'Arial', 'Helvetica', sans-serif" font-size="6"
            xml:space="preserve">40k</tspan><tspan xml:space="preserve"> </tspan></text>
    <rect function="impedance_select" ID="100001" stroke="#000000" I2CPage="1" width="25.0" Mask="0xC0"
        fill="none" LinkTo="100000" height="18.75" Shift="6" x="160.0" y="98.75" I2CRegister="48"
        ActiveColor="0x00bb00bb"/>
    <line y2="207.5" fill="none" x1="160.0" x2="157.5" stroke="#000000" y1="205.0"/>
    <line y2="212.5" fill="none" x1="157.5" x2="162.5" stroke="#000000" y1="207.5"/>
    <line y2="217.5" fill="none" x1="162.5" x2="157.5" stroke="#000000" y1="212.5"/>
    <line y2="222.5" fill="none" x1="157.5" x2="162.5" stroke="#000000" y1="217.5"/>
    <line y2="225.0" fill="none" x1="162.5" x2="160.0" stroke="#000000" y1="222.5"/>
    <line y2="200.0" fill="none" x1="160.0" x2="160.0" stroke="#000000" y1="205.0"/>
    <line y2="230.0" fill="none" x1="160.0" x2="160.0" stroke="#000000" y1="225.0"/>
    <line y2="225.0" fill="none" x1="175.0" x2="172.5" y1="222.5" stroke="#000000"/>
    <line y2="222.5" fill="none" x1="170.0" x2="175.0" y1="217.5" stroke="#000000"/>
    <line y2="217.5" fill="none" x1="175.0" x2="170.0" y1="212.5" stroke="#000000"/>
    <line y2="212.5" fill="none" x1="170.0" x2="175.0" y1="207.5" stroke="#000000"/>
    <line y2="207.5" fill="none" x1="172.5" x2="170.0" y1="205.0" stroke="#000000"/>
    <line y2="200.0" fill="none" x1="172.5" x2="172.5" stroke="#000000" y1="205.0"/>
    <line y2="230.0" fill="none" x1="172.5" x2="172.5" stroke="#000000" y1="225.0"/>
    <line y2="225.0" fill="none" x1="187.5" x2="185.0" y1="222.5" stroke="#000000"/>
    <line y2="222.5" fill="none" x1="182.5" x2="187.5" y1="217.5" stroke="#000000"/>
    <line y2="217.5" fill="none" x1="187.5" x2="182.5" y1="212.5" stroke="#000000"/>
    <line y2="212.5" fill="none" x1="182.5" x2="187.5" y1="207.5" stroke="#000000"/>
    <line y2="207.5" fill="none" x1="185.0" x2="182.5" y1="205.0" stroke="#000000"/>
    <line y2="200.0" fill="none" x1="185.0" x2="185.0" stroke="#000000" y1="205.0"/>
    <line y2="230.0" fill="none" x1="185.0" x2="185.0" stroke="#000000" y1="225.0"/>
    <ellipse rx="1.25" fill="none" ry="1.25" cx="160.0" cy="198.75" stroke="#000000"/>
    <ellipse rx="1.25" fill="none" ry="1.25" cx="172.5" cy="198.75" stroke="#000000"/>
    <ellipse rx="1.25" fill="none" ry="1.25" cx="185.0" cy="198.75" stroke="#000000"/>
    <ellipse ActiveColor="0x00bb00bb" fill="none" ID="200001" rx="1.25" cx="172.5" cy="177.5" ry="1.25"
        stroke="#000000"/>
    <line y2="230.0" fill="none" x1="160.0" x2="185.0" stroke="#000000" y1="230.0"/>
    <line y2="238.75" fill="none" x1="172.45833" x2="172.45833" stroke="#000000" y1="230.0"/>
    <line y2="238.75" fill="none" x1="168.70833" x2="176.20833" stroke="#000000" y1="238.75"/>
    <line y2="240.0" fill="none" x1="169.95833" x2="174.95833" stroke="#000000" y1="240.0"/>
    <line y2="241.25" fill="none" x1="171.20833" x2="173.70833" stroke="#000000" y1="241.25"/>
    <line y2="240.0" fill="none" x1="169.95833" x2="174.95833" y1="240.0" stroke="#000000"/>
    <line y2="241.25" fill="none" x1="171.20833" x2="173.70833" y1="241.25" stroke="#000000"/>
    <line y2="238.75" fill="none" x1="168.70833" x2="176.20833" y1="238.75" stroke="#000000"/>
    <ellipse rx="1.25" fill="none" ry="1.25" cx="172.5" cy="230.0" stroke="#000000"/>
    <line ActiveColor="0x00bb00bb" fill="none" x1="150.0" x2="217.5" y1="177.5" y2="177.5" ID="200001"
        stroke="#000000"/>
    <polygon ID="200001" ActiveColor="0x00bb00bb" fill="none" points="217.5,192.5 217.5,162.5 
        242.5,177.5" stroke="#000000"/>
    <text x="154.25" y="249.25"><tspan font-family="'Arial', 'Helvetica', sans-serif" font-size="6"
            xml:space="preserve">10k</tspan><tspan xml:space="preserve"> </tspan></text>
    <text x="169.25" y="249.25"><tspan font-size="6" font-family="'Arial', 'Helvetica', sans-serif"
            xml:space="preserve">20k</tspan><tspan xml:space="preserve"> </tspan></text>
    <text x="184.25" y="249.25"><tspan font-size="6" font-family="'Arial', 'Helvetica', sans-serif"
            xml:space="preserve">40k</tspan><tspan xml:space="preserve"> </tspan></text>
    <rect function="impedance_select" ID="200001" stroke="#000000" I2CPage="1" width="25.0" Mask="0x0C"
        fill="none" LinkTo="200000" height="18.75" Shift="2" x="160.0" y="178.75" I2CRegister="48"
        ActiveColor="0x00bb00bb"/>
    <line y2="287.5" fill="none" x1="160.0" x2="157.5" stroke="#000000" y1="285.0"/>
    <line y2="292.5" fill="none" x1="157.5" x2="162.5" stroke="#000000" y1="287.5"/>
    <line y2="297.5" fill="none" x1="162.5" x2="157.5" stroke="#000000" y1="292.5"/>
    <line y2="302.5" fill="none" x1="157.5" x2="162.5" stroke="#000000" y1="297.5"/>
    <line y2="305.0" fill="none" x1="162.5" x2="160.0" stroke="#000000" y1="302.5"/>
    <line y2="280.0" fill="none" x1="160.0" x2="160.0" stroke="#000000" y1="285.0"/>
    <line y2="310.0" fill="none" x1="160.0" x2="160.0" stroke="#000000" y1="305.0"/>
    <line y2="305.0" fill="none" x1="175.0" x2="172.5" y1="302.5" stroke="#000000"/>
    <line y2="302.5" fill="none" x1="170.0" x2="175.0" y1="297.5" stroke="#000000"/>
    <line y2="297.5" fill="none" x1="175.0" x2="170.0" y1="292.5" stroke="#000000"/>
    <line y2="292.5" fill="none" x1="170.0" x2="175.0" y1="287.5" stroke="#000000"/>
    <line y2="287.5" fill="none" x1="172.5" x2="170.0" y1="285.0" stroke="#000000"/>
    <line y2="280.0" fill="none" x1="172.5" x2="172.5" stroke="#000000" y1="285.0"/>
    <line y2="310.0" fill="none" x1="172.5" x2="172.5" stroke="#000000" y1="305.0"/>
    <line y2="305.0" fill="none" x1="187.5" x2="185.0" y1="302.5" stroke="#000000"/>
    <line y2="302.5" fill="none" x1="182.5" x2="187.5" y1="297.5" stroke="#000000"/>
    <line y2="297.5" fill="none" x1="187.5" x2="182.5" y1="292.5" stroke="#000000"/>
    <line y2="292.5" fill="none" x1="182.5" x2="187.5" y1="287.5" stroke="#000000"/>
    <line y2="287.5" fill="none" x1="185.0" x2="182.5" y1="285.0" stroke="#000000"/>
    <line y2="280.0" fill="none" x1="185.0" x2="185.0" stroke="#000000" y1="285.0"/>
    <line y2="310.0" fill="none" x1="185.0" x2="185.0" stroke="#000000" y1="305.0"/>
    <ellipse rx="1.25" fill="none" ry="1.25" cx="160.0" cy="278.75" stroke="#000000"/>
    <ellipse rx="1.25" fill="none" ry="1.25" cx="172.5" cy="278.75" stroke="#000000"/>
    <ellipse rx="1.25" fill="none" ry="1.25" cx="185.0" cy="278.75" stroke="#000000"/>
    <ellipse ActiveColor="0x00bb00bb" fill="none" ID="300001" rx="1.25" cx="172.5" cy="257.5" ry="1.25"
        stroke="#000000"/>
    <line y2="310.0" fill="none" x1="160.0" x2="185.0" stroke="#000000" y1="310.0"/>
    <line y2="318.75" fill="none" x1="172.45833" x2="172.45833" stroke="#000000" y1="310.0"/>
    <line y2="318.75" fill="none" x1="168.70833" x2="176.20833" stroke="#000000" y1="318.75"/>
    <line y2="320.0" fill="none" x1="169.95833" x2="174.95833" stroke="#000000" y1="320.0"/>
    <line y2="321.25" fill="none" x1="171.20833" x2="173.70833" stroke="#000000" y1="321.25"/>
    <line y2="320.0" fill="none" x1="169.95833" x2="174.95833" y1="320.0" stroke="#000000"/>
    <line y2="321.25" fill="none" x1="171.20833" x2="173.70833" y1="321.25" stroke="#000000"/>
    <line y2="318.75" fill="none" x1="168.70833" x2="176.20833" y1="318.75" stroke="#000000"/>
    <ellipse rx="1.25" fill="none" ry="1.25" cx="172.5" cy="310.0" stroke="#000000"/>
    <line ActiveColor="0x00bb00bb" fill="none" x1="150.0" x2="217.5" y1="257.5" y2="257.5" ID="300001"
        stroke="#000000"/>
    <polygon ID="300001" ActiveColor="0x00bb00bb" fill="none" points="217.5,272.5 217.5,242.5 
        242.5,257.5" stroke="#000000"/>
    <text x="169.25" y="329.25"><tspan font-size="6" font-family="'Arial', 'Helvetica', sans-serif"
            xml:space="preserve">20k</tspan><tspan xml:space="preserve"> </tspan></text>
    <text x="184.25" y="329.25"><tspan font-size="6" font-family="'Arial', 'Helvetica', sans-serif"
            xml:space="preserve">40k</tspan><tspan xml:space="preserve"> </tspan></text>
    <rect function="impedance_select" ID="300001" stroke="#000000" I2CPage="1" width="25.0" Mask="0x30"
        fill="none" LinkTo="300000" height="18.75" Shift="4" x="160.0" y="258.75" I2CRegister="48"
        ActiveColor="0x00bb00bb"/>
    <line y2="367.5" fill="none" x1="160.0" x2="157.5" stroke="#000000" y1="365.0"/>
    <line y2="372.5" fill="none" x1="157.5" x2="162.5" stroke="#000000" y1="367.5"/>
    <line y2="377.5" fill="none" x1="162.5" x2="157.5" stroke="#000000" y1="372.5"/>
    <line y2="382.5" fill="none" x1="157.5" x2="162.5" stroke="#000000" y1="377.5"/>
    <line y2="385.0" fill="none" x1="162.5" x2="160.0" stroke="#000000" y1="382.5"/>
    <line y2="360.0" fill="none" x1="160.0" x2="160.0" stroke="#000000" y1="365.0"/>
    <line y2="390.0" fill="none" x1="160.0" x2="160.0" stroke="#000000" y1="385.0"/>
    <line y2="385.0" fill="none" x1="175.0" x2="172.5" y1="382.5" stroke="#000000"/>
    <line y2="382.5" fill="none" x1="170.0" x2="175.0" y1="377.5" stroke="#000000"/>
    <line y2="377.5" fill="none" x1="175.0" x2="170.0" y1="372.5" stroke="#000000"/>
    <line y2="372.5" fill="none" x1="170.0" x2="175.0" y1="367.5" stroke="#000000"/>
    <line y2="367.5" fill="none" x1="172.5" x2="170.0" y1="365.0" stroke="#000000"/>
    <line y2="360.0" fill="none" x1="172.5" x2="172.5" stroke="#000000" y1="365.0"/>
    <line y2="390.0" fill="none" x1="172.5" x2="172.5" stroke="#000000" y1="385.0"/>
    <line y2="385.0" fill="none" x1="187.5" x2="185.0" y1="382.5" stroke="#000000"/>
    <line y2="382.5" fill="none" x1="182.5" x2="187.5" y1="377.5" stroke="#000000"/>
    <line y2="377.5" fill="none" x1="187.5" x2="182.5" y1="372.5" stroke="#000000"/>
    <line y2="372.5" fill="none" x1="182.5" x2="187.5" y1="367.5" stroke="#000000"/>
    <line y2="367.5" fill="none" x1="185.0" x2="182.5" y1="365.0" stroke="#000000"/>
    <line y2="360.0" fill="none" x1="185.0" x2="185.0" stroke="#000000" y1="365.0"/>
    <line y2="390.0" fill="none" x1="185.0" x2="185.0" stroke="#000000" y1="385.0"/>
    <ellipse rx="1.25" fill="none" ry="1.25" cx="160.0" cy="358.75" stroke="#000000"/>
    <ellipse rx="1.25" fill="none" ry="1.25" cx="172.5" cy="358.75" stroke="#000000"/>
    <ellipse rx="1.25" fill="none" ry="1.25" cx="185.0" cy="358.75" stroke="#000000"/>
    <ellipse rx="1.25" fill="none" ry="1.25" cx="172.5" cy="337.5" stroke="#000000"/>
    <line y2="390.0" fill="none" x1="160.0" x2="185.0" stroke="#000000" y1="390.0"/>
    <line y2="398.75" fill="none" x1="172.45833" x2="172.45833" stroke="#000000" y1="390.0"/>
    <line y2="398.75" fill="none" x1="168.70833" x2="176.20833" stroke="#000000" y1="398.75"/>
    <line y2="400.0" fill="none" x1="169.95833" x2="174.95833" stroke="#000000" y1="400.0"/>
    <line y2="401.25" fill="none" x1="171.20833" x2="173.70833" stroke="#000000" y1="401.25"/>
    <line y2="400.0" fill="none" x1="169.95833" x2="174.95833" y1="400.0" stroke="#000000"/>
    <line y2="401.25" fill="none" x1="171.20833" x2="173.70833" y1="401.25" stroke="#000000"/>
    <line y2="398.75" fill="none" x1="168.70833" x2="176.20833" y1="398.75" stroke="#000000"/>
    <ellipse rx="1.25" fill="none" ry="1.25" cx="172.5" cy="390.0" stroke="#000000"/>
    <line ActiveColor="0x00bb00bb" fill="none" x1="150.0" x2="217.5" y1="337.5" y2="337.5" ID="400001"
        stroke="#000000"/>
    <polygon ID="400001" ActiveColor="0x00bb00bb" fill="none" points="217.5,352.5 217.5,322.5 
        242.5,337.5" stroke="#000000"/>
    <text x="154.25" y="409.25"><tspan font-family="'Arial', 'Helvetica', sans-serif" font-size="6"
            xml:space="preserve">10k</tspan><tspan xml:space="preserve"> </tspan></text>
    <text x="169.25" y="409.25"><tspan font-size="6" font-family="'Arial', 'Helvetica', sans-serif"
            xml:space="preserve">20k</tspan><tspan xml:space="preserve"> </tspan></text>
    <text x="184.25" y="409.25"><tspan font-size="6" font-family="'Arial', 'Helvetica', sans-serif"
            xml:space="preserve">40k</tspan><tspan xml:space="preserve"> </tspan></text>
    <rect function="impedance_select" ID="400001" stroke="#000000" I2CPage="1" width="25.0" Mask="0x30"
        fill="none" LinkTo="400000" height="18.75" Shift="4" x="160.0" y="338.75" I2CRegister="49"
        ActiveColor="0x00bb00bb"/>
    <line y2="452.5" fill="none" x1="160.0" x2="157.5" stroke="#000000" y1="450.0"/>
    <line y2="457.5" fill="none" x1="157.5" x2="162.5" stroke="#000000" y1="452.5"/>
    <line y2="462.5" fill="none" x1="162.5" x2="157.5" stroke="#000000" y1="457.5"/>
    <line y2="467.5" fill="none" x1="157.5" x2="162.5" stroke="#000000" y1="462.5"/>
    <line y2="470.0" fill="none" x1="162.5" x2="160.0" stroke="#000000" y1="467.5"/>
    <line y2="445.0" fill="none" x1="160.0" x2="160.0" stroke="#000000" y1="450.0"/>
    <line y2="475.0" fill="none" x1="160.0" x2="160.0" stroke="#000000" y1="470.0"/>
    <line y2="470.0" fill="none" x1="175.0" x2="172.5" y1="467.5" stroke="#000000"/>
    <line y2="467.5" fill="none" x1="170.0" x2="175.0" y1="462.5" stroke="#000000"/>
    <line y2="462.5" fill="none" x1="175.0" x2="170.0" y1="457.5" stroke="#000000"/>
    <line y2="457.5" fill="none" x1="170.0" x2="175.0" y1="452.5" stroke="#000000"/>
    <line y2="452.5" fill="none" x1="172.5" x2="170.0" y1="450.0" stroke="#000000"/>
    <line y2="445.0" fill="none" x1="172.5" x2="172.5" stroke="#000000" y1="450.0"/>
    <line y2="475.0" fill="none" x1="172.5" x2="172.5" stroke="#000000" y1="470.0"/>
    <line y2="470.0" fill="none" x1="187.5" x2="185.0" y1="467.5" stroke="#000000"/>
    <line y2="467.5" fill="none" x1="182.5" x2="187.5" y1="462.5" stroke="#000000"/>
    <line y2="462.5" fill="none" x1="187.5" x2="182.5" y1="457.5" stroke="#000000"/>
    <line y2="457.5" fill="none" x1="182.5" x2="187.5" y1="452.5" stroke="#000000"/>
    <line y2="452.5" fill="none" x1="185.0" x2="182.5" y1="450.0" stroke="#000000"/>
    <line y2="445.0" fill="none" x1="185.0" x2="185.0" stroke="#000000" y1="450.0"/>
    <line y2="475.0" fill="none" x1="185.0" x2="185.0" stroke="#000000" y1="470.0"/>
    <ellipse rx="1.25" fill="none" ry="1.25" cx="160.0" cy="443.75" stroke="#000000"/>
    <ellipse rx="1.25" fill="none" ry="1.25" cx="172.5" cy="443.75" stroke="#000000"/>
    <ellipse rx="1.25" fill="none" ry="1.25" cx="185.0" cy="443.75" stroke="#000000"/>
    <ellipse ActiveColor="0x00bb00bb" fill="none" ID="500001" rx="1.25" cx="172.5" cy="422.5" ry="1.25"
        stroke="#000000"/>
    <line y2="475.0" fill="none" x1="160.0" x2="185.0" stroke="#000000" y1="475.0"/>
    <line y2="483.75" fill="none" x1="172.45831" x2="172.45831" stroke="#000000" y1="475.0"/>
    <line y2="483.75" fill="none" x1="168.70831" x2="176.20831" stroke="#000000" y1="483.75"/>
    <line y2="485.0" fill="none" x1="169.95831" x2="174.95831" stroke="#000000" y1="485.0"/>
    <line y2="486.25" fill="none" x1="171.20831" x2="173.70831" stroke="#000000" y1="486.25"/>
    <line y2="485.0" fill="none" x1="169.95831" x2="174.95831" y1="485.0" stroke="#000000"/>
    <line y2="486.25" fill="none" x1="171.20831" x2="173.70831" y1="486.25" stroke="#000000"/>
    <line y2="483.75" fill="none" x1="168.70831" x2="176.20831" y1="483.75" stroke="#000000"/>
    <ellipse rx="1.25" fill="none" ry="1.25" cx="172.5" cy="475.0" stroke="#000000"/>
    <line ActiveColor="0x00bb00bb" fill="none" x1="150.0" x2="217.5" y1="422.5" y2="422.5" ID="500001"
        stroke="#000000"/>
    <polygon ID="500001" ActiveColor="0x00bb00bb" fill="none" points="217.5,437.5 217.5,407.5 
        242.5,422.5" stroke="#000000"/>
    <text x="154.25" y="494.25"><tspan font-family="'Arial', 'Helvetica', sans-serif" font-size="6"
            xml:space="preserve">10k</tspan><tspan xml:space="preserve"> </tspan></text>
    <text x="169.25" y="494.25"><tspan font-size="6" font-family="'Arial', 'Helvetica', sans-serif"
            xml:space="preserve">20k</tspan><tspan xml:space="preserve"> </tspan></text>
    <text x="184.25" y="494.25"><tspan font-size="6" font-family="'Arial', 'Helvetica', sans-serif"
            xml:space="preserve">40k</tspan><tspan xml:space="preserve"> </tspan></text>
    <rect function="impedance_select" ID="500001" stroke="#000000" I2CPage="1" width="25.0" Mask="0xC0"
        fill="none" LinkTo="500000" height="18.75" Shift="6" x="160.0" y="423.75" I2CRegister="49"
        ActiveColor="0x00bb00bb"/>
    <ellipse ActiveColor="0x00bb00bb" fill="none" ID="600000" rx="10.0" cx="277.5" cy="177.41669"
        ry="10.0" stroke="#000000"/>
    <polyline ID="600000" ActiveColor="0x00bb00bb" fill="none" points="281.0,172.0 274.0,172.0 
        280.0,177.0 274.0,182.0 281.0,182.0" stroke="#000000"/>
    <ellipse ActiveColor="0x00bb00bb" fill="none" ID="450000" rx="10.0" cx="277.5" cy="379.9167" ry="10.0"
        stroke="#000000"/>
    <polyline ID="450000" ActiveColor="0x00bb00bb" fill="none" points="282.0,375.0 274.0,375.0 
        280.0,380.0 274.0,385.0 282.0,385.0" stroke="#000000"/>
    <line ActiveColor="0x00bb00bb" LinkTo="600000" fill="none" x1="242.5" x2="267.5" y1="177.5" y2="177.5"
        ID="200001" stroke="#000000"/>
    <polyline ID="100001" ActiveColor="0x00bb00bb" fill="none" points="242.5,97.5 277.5,97.5 
        277.5,167.5" LinkTo="600000" stroke="#000000"/>
    <polyline ID="300001" ActiveColor="0x00bb00bb" fill="none" points="242.5,257.5 277.5,257.5 
        277.5,187.5" stroke="#000000"/>
    <polyline ID="400001" ActiveColor="0x00bb00bb" fill="none" points="242.5,337.5 277.5,337.5 
        277.5,370.0" LinkTo="450000" stroke="#000000"/>
    <polyline ActiveColor="0x00bb00bb" ID="500001" fill="none" points="242.5,422.5 277.5,422.5 
        277.5,390.0" LinkTo="450000" stroke="#000000"/>
    <line y2="219.0" fill="none" x1="330.5" x2="335.75" stroke="#000000" y1="241.66667"/>
    <polygon function="amplifier" ID="600001" stroke="#000000" I2CPage="1" Mask="0x7F" fill="none"
        TextLocation="10, 30" min="0" step="0.5" points="320.0,162.33334 320.0,230.33333 
        372.5,196.33336" Shift="0" max="59.5" I2CRegister="47" ActiveColor="0x00bb00bb"/>
    <line y2="156.66667" fill="none" x1="346.25" x2="351.5" stroke="#000000" y1="179.33334"/>
    <line ActiveColor="0x00bb00bb" LinkTo="600001" fill="none" x1="287.5" x2="320.0" y1="177.5" y2="177.5"
        ID="600000" stroke="#000000"/>
    <text x="324.75" y="177.66667"><tspan font-size="6" font-family="'Arial', 'Helvetica', sans-serif"
            xml:space="preserve">+</tspan><tspan xml:space="preserve"> </tspan></text>
    <text x="324.75" y="220.16667"><tspan font-family="'Arial', 'Helvetica', sans-serif" font-size="6"
            xml:space="preserve">-</tspan><tspan xml:space="preserve"> </tspan></text>
    <polyline ID="450000" ActiveColor="0x00bb00bb" fill="none" points="320.0,217.5 305.0,217.5 
        305.0,380.0 287.5,380.0" LinkTo="600001" stroke="#000000"/>
    <polygon ID="600001" ActiveColor="0x00bb00bb" fill="none" points="418.69998,196.33336 
        439.7,173.66667 481.69998,173.66667 481.69998,219.0 439.7,219.0" stroke="#000000"/>
    <text x="447.41666" y="200.08336"><tspan font-size="8" font-family="'Arial', 'Helvetica', sans-serif"
            xml:space="preserve">ADC</tspan><tspan xml:space="preserve"> </tspan></text>
    <line ActiveColor="0x00bb00bb" fill="none" x1="372.5" x2="419.75" y1="196.33336" y2="196.33336"
        ID="600001" stroke="#000000"/>
    <rect ActiveColor="0x00bb00bb" x="372.5" y="247.33333" fill="none" width="47.25" height="39.666687"
        stroke="#000000" function="AGC"/>
    <text x="387.41666" y="270.08334"><tspan font-family="'Arial', 'Helvetica', sans-serif"
            font-size="8" xml:space="preserve">AGC</tspan><tspan xml:space="preserve"> </tspan></text>
    <line y2="270.0" fill="none" x1="372.5" x2="346.25" stroke="#000000" y1="270.0"/>
    <line y2="213.33336" fill="none" x1="346.25" x2="346.25" stroke="#000000" y1="270.0"/>
    <rect ActiveColor="0x00bb00bb" x="524.75" y="168.0" fill="none" width="52.5" ID="600001" height="56.66667"
        stroke="#000000"/>
    <text x="542.0" y="199.91667"><tspan font-family="'Arial', 'Helvetica', sans-serif" font-size="8"
            xml:space="preserve">DSP</tspan><tspan xml:space="preserve"> </tspan></text>
    <line ActiveColor="0x00bb00bb" fill="none" x1="482.75" x2="524.75" y1="196.33336" y2="196.33336"
        ID="600001" stroke="#000000"/>
    <line ActiveColor="0x00bb00bb" fill="none" x1="576.8333" x2="680.0" y1="196.66667" y2="196.66667"
        ID="600001" stroke="#000000"/>
    <ellipse ActiveColor="0x00bb00bb" fill="none" ID="600001" rx="1.25" cx="623.5" cy="196.5" ry="1.25"
        stroke="#000000"/>
    <line ActiveColor="0x00bb00bb" fill="none" x1="623.50037" x2="623.50037" y1="196.66669" y2="270.0"
        ID="600001" stroke="#000000"/>
    <line ActiveColor="0x00bb00bb" fill="none" x1="623.5" x2="419.75" y1="270.0" y2="270.0" ID="600001"
        stroke="#000000"/>
    <rect x="680.0" y="20.0" fill="none" width="50.0" height="480.0" stroke="#000000" function="DConf"/>
    <text x="19.5" y="99.041664"><tspan font-family="'Arial', 'Helvetica', sans-serif" font-size="8"
            xml:space="preserve">MIC1LP</tspan><tspan xml:space="preserve"> </tspan></text>
    <text x="108.75" y="420.625"><tspan font-size="6" font-family="'Arial', 'Helvetica', sans-serif"
            xml:space="preserve">VCOM</tspan><tspan xml:space="preserve"> </tspan></text>
    <ellipse ActiveColor="0x00bb00bb" fill="none" rx="1.25" cx="90.083336" ry="1.25" cy="177.5"
        stroke="#000000" active="1"/>
    <ellipse rx="1.25" fill="none" ry="1.25" cx="160.0" cy="443.75" stroke="#000000"/>
    <ellipse ActiveColor="0x00bb00bb" fill="none" rx="1.25" cx="58.75" ry="1.25" cy="177.54175"
        stroke="#000000" active="1"/>
    <ellipse ActiveColor="0x00bb00bb" fill="none" rx="1.25" cx="58.75" ry="1.25" cy="257.54175"
        stroke="#000000" active="1"/>
    <text x="19.5" y="178.25"><tspan font-family="'Arial', 'Helvetica', sans-serif" font-size="8"
            xml:space="preserve">MIC1LM</tspan><tspan xml:space="preserve"> </tspan></text>
    <text x="19.5" y="258.25"><tspan font-size="8" font-family="'Arial', 'Helvetica', sans-serif"
            xml:space="preserve">MIC1RP</tspan><tspan xml:space="preserve"> </tspan></text>
    <text x="684.1667" y="105.916664"><tspan font-family="'Arial', 'Helvetica', sans-serif"
            font-size="8" xml:space="preserve">Digital</tspan><tspan xml:space="preserve"> </tspan></text>
    <text x="685.0" y="115.75"><tspan font-size="8" font-family="'Arial', 'Helvetica', sans-serif"
            xml:space="preserve">Audio</tspan><tspan xml:space="preserve"> </tspan></text>
    <text x="684.5" y="125.75"><tspan font-size="8" font-family="'Arial', 'Helvetica', sans-serif"
            xml:space="preserve">Processing</tspan><tspan xml:space="preserve"> </tspan></text>
    <text x="684.5" y="150.75"><tspan font-size="8" font-family="'Arial', 'Helvetica', sans-serif"
            xml:space="preserve">Serial</tspan><tspan xml:space="preserve"> </tspan></text>
    <text x="684.5" y="160.75"><tspan font-size="8" font-family="'Arial', 'Helvetica', sans-serif"
            xml:space="preserve">Interface</tspan><tspan xml:space="preserve"> </tspan></text>
    <rect function="switch" stroke="#000000" active="1" I2CPage="1" transform="matrix(-1.0 0.0 0.0 1.0 278.75 0.0)"
        width="16.25" fill="none" LinkTo="500001" layout="horizontal" height="7.5" Bit="6" x="131.25"
        y="415.0" I2CRegister="49" ActiveColor="0x00bb00bb"/>
    <ellipse ActiveColor="0x00bb00bb" fill="none" ID="500001" rx="1.25" cx="148.75" cy="422.5" ry="1.25"
        stroke="#000000"/>
    <ellipse ActiveColor="0x00bb00bb" fill="none" rx="1.25" cx="130.0" ry="1.25" cy="422.5" stroke="#000000"
        active="1"/>
    <line ActiveColor="0x00bb00bb" fill="none" x1="113.75" x2="128.75" y1="422.5" y2="422.5" stroke="#000000"
        active="1"/>
    <rect function="switch" stroke="#000000" active="1" I2CPage="1" transform="matrix(-1.0 0.0 0.0 1.0 278.75 0.0)"
        width="16.25" fill="none" LinkTo="400001" layout="horizontal" height="7.5" Bit="4" x="131.25"
        y="330.0" I2CRegister="49" ActiveColor="0x00bb00bb"/>
    <ellipse ActiveColor="0x00bb00bb" fill="none" ID="400001" rx="1.25" cx="148.75" cy="337.5" ry="1.25"
        stroke="#000000"/>
    <ellipse ActiveColor="0x00bb00bb" fill="none" rx="1.25" cx="130.0" ry="1.25" cy="337.5" stroke="#000000"
        active="1"/>
    <line ActiveColor="0x00bb00bb" fill="none" x1="90.0" x2="128.75" y1="337.5" y2="337.5" stroke="#000000"
        active="1"/>
    <rect function="switch" stroke="#000000" active="1" I2CPage="1" transform="matrix(-1.0 0.0 0.0 1.0 278.75 0.0)"
        width="16.25" fill="none" LinkTo="300001" layout="horizontal" height="7.5" Bit="4" x="131.25"
        y="250.0" I2CRegister="48" ActiveColor="0x00bb00bb"/>
    <ellipse ActiveColor="0x00bb00bb" fill="none" ID="300001" rx="1.25" cx="148.75" cy="257.5" ry="1.25"
        stroke="#000000"/>
    <ellipse ActiveColor="0x00bb00bb" fill="none" rx="1.25" cx="130.0" ry="1.25" cy="257.5" stroke="#000000"
        active="1"/>
    <rect function="switch" stroke="#000000" active="1" I2CPage="1" transform="matrix(-1.0 0.0 0.0 1.0 278.75 0.0)"
        width="16.25" fill="none" LinkTo="200001" layout="horizontal" height="7.5" Bit="2" x="131.25"
        y="170.0" I2CRegister="48" ActiveColor="0x00bb00bb"/>
    <ellipse ActiveColor="0x00bb00bb" fill="none" ID="200001" rx="1.25" cx="148.75" cy="177.5" ry="1.25"
        stroke="#000000"/>
    <ellipse ActiveColor="0x00bb00bb" fill="none" rx="1.25" cx="130.0" ry="1.25" cy="177.5" stroke="#000000"
        active="1"/>
    <rect function="switch" stroke="#000000" active="1" I2CPage="1" transform="matrix(-1.0 0.0 0.0 1.0 278.75 0.0)"
        width="16.25" fill="none" LinkTo="100001" layout="horizontal" height="7.5" Bit="6" x="131.25"
        y="90.0" I2CRegister="48" ActiveColor="0x00bb00bb"/>
    <ellipse ActiveColor="0x00bb00bb" fill="none" ID="100001" rx="1.25" cx="148.75" cy="97.5" ry="1.25"
        stroke="#000000"/>
    <ellipse ActiveColor="0x00bb00bb" fill="none" rx="1.25" cx="130.0" ry="1.25" cy="97.5" stroke="#000000"
        active="1"/>
    <text x="154.375" y="329.25"><tspan font-size="6" font-family="'Arial', 'Helvetica', sans-serif"
            xml:space="preserve">10k</tspan><tspan xml:space="preserve"> </tspan></text>
    <line ActiveColor="0x00bb00bb" fill="none" x1="60.0" x2="128.75" y1="177.5" y2="177.5" stroke="#000000"
        active="1"/>
    <line ActiveColor="0x00bb00bb" fill="none" x1="60.0" x2="128.75" y1="257.5" y2="257.5" stroke="#000000"
        active="1"/>
    <line ActiveColor="0x00bb00bb" fill="none" x1="90.0" x2="90.0" y1="337.5" y2="177.5" stroke="#000000"
        active="1"/>
    <text x="19.5" file="TSC2117_MICBIAS.jpg" HintYOffset="0" y="42.583324"><tspan font-size="8"
            font-family="'Arial', 'Helvetica', sans-serif" xml:space="preserve">MICBIAS</tspan><tspan
            xml:space="preserve"> </tspan></text>
</svg>