<?xml version="1.0" standalone="no"?>
<!--Created with Sketsa SVG Editor (http://www.kiyut.com)-->
<svg contentScriptType="text/ecmascript" width="1000.0px" xmlns:xlink="http://www.w3.org/1999/xlink"
    baseProfile="full" zoomAndPan="magnify" contentStyleType="text/css" height="1200.0px"
    preserveAspectRatio="xMidYMid meet" xmlns="http://www.w3.org/2000/svg" version="1.0">
    <metadata id="I2CData" file="Codecs\AIC3111_PLAYBACK_Init.txt" dll="Codecs\AIC3XXX.DLL"/>
    <polygon function="amplifier" ID="1000" stroke="#000000" I2CPage="1" Mask="0x18" fill="none"
        TextLocation="-13, 10" min="6" step="6" points="200.0,55.0 200.0,85.0 175.0,70.0" Shift="3"
        max="24" I2CRegister="42"/>
    <polygon function="amplifier" ID="2000" stroke="#000000" I2CPage="1" Mask="0x18" fill="none"
        TextLocation="-13, 10" min="6" step="6" points="200.0,100.0 200.0,130.0 175.0,115.0" Shift="3"
        max="24" ActiveColor="0x00bbbb00" I2CRegister="43"/>
    <polygon function="amplifier" ID="1001" CustomGain="1" stroke="#000000" active="1" I2CPage="1"
        Mask="0x7F" fill="none" TextLocation="-13, 10" min="-78" step="0.61" points="300.0,55.0 
        300.0,85.0 275.0,70.0" Shift="0" max="0" I2CRegister="38"/>
    <polygon function="amplifier" ID="2001" CustomGain="1" stroke="#000000" active="1" I2CPage="1"
        Mask="0x7F" fill="none" TextLocation="-13, 10" min="-78" step="0.61" points="300.0,100.0 
        300.0,130.0 275.0,115.0" Shift="0" max="0" ActiveColor="0x00bbbb00" I2CRegister="39"/>
    <line y2="75.0" fill="none" x1="207.5" x2="200.0" y1="82.5" stroke="#000000"/>
    <line y2="55.0" fill="none" x1="187.5" x2="180.0" y1="62.5" stroke="#000000"/>
    <line y2="55.0" fill="none" x1="287.5" x2="280.0" stroke="#000000" y1="62.5"/>
    <line y2="100.0" fill="none" x1="187.5" x2="180.0" stroke="#000000" y1="107.5"/>
    <line y2="100.0" fill="none" x1="287.5" x2="280.0" stroke="#000000" y1="107.5"/>
    <line y2="120.0" fill="none" x1="207.5" x2="200.0" stroke="#000000" y1="127.5"/>
    <line y2="75.0" fill="none" x1="307.5" x2="300.0" stroke="#000000" y1="82.5"/>
    <line y2="120.0" fill="none" x1="307.5" x2="300.0" stroke="#000000" y1="127.5"/>
    <polyline ID="1000" fill="none" points="180.0,67.5 180.0,62.5 57.5,62.5" stroke="#000000"/>
    <ellipse fill="none" ID="1000" rx="1.6666666" cx="180.0" ry="1.6666666" cy="75.0" stroke="#000000"/>
    <polyline ID="1000" fill="none" points="180.0,76.66667 180.0,77.5 57.5,77.5" stroke="#000000"/>
    <polyline ActiveColor="0x00bbbb00" ID="2000" fill="none" points="180.0,121.66667 180.0,122.5 
        57.5,122.5" stroke="#000000"/>
    <ellipse ActiveColor="0x00bbbb00" fill="none" ID="2000" rx="1.6666666" cx="180.0" ry="1.6666666"
        cy="120.0" stroke="#000000"/>
    <polyline ActiveColor="0x00bbbb00" ID="2000" fill="none" points="180.0,112.5 180.0,107.5 
        57.5,107.5" stroke="#000000"/>
    <text x="154.5" y="36.0"><tspan font-size="8" font-family="'Arial', 'Helvetica', sans-serif"
            xml:space="preserve">Class-D Speaker Driver </tspan><tspan xml:space="preserve"> </tspan></text>
    <text x="154.5" y="46.0"><tspan font-family="'Arial', 'Helvetica', sans-serif" font-size="8"
            xml:space="preserve">6dB to 24dB</tspan><tspan xml:space="preserve"> </tspan></text>
    <text x="264.5" y="36.0"><tspan font-family="'Arial', 'Helvetica', sans-serif" font-size="8"
            xml:space="preserve">Analog Attenuation</tspan><tspan xml:space="preserve"> </tspan></text>
    <text x="265.0" y="45.5"><tspan font-size="8" font-family="'Arial', 'Helvetica', sans-serif"
            xml:space="preserve">0dB to -78dB + Mute</tspan><tspan xml:space="preserve"> </tspan></text>
    <text x="324.5" y="64.5"><tspan font-size="6" font-family="'Arial', 'Helvetica', sans-serif"
            xml:space="preserve">MIX_L</tspan><tspan xml:space="preserve"> </tspan></text>
    <text x="324.5" y="109.5"><tspan font-size="6" font-family="'Arial', 'Helvetica', sans-serif"
            xml:space="preserve">MIX_R</tspan><tspan xml:space="preserve"> </tspan></text>
    <rect fill="none" x="150.0" width="95.0" height="120.0" y="25.0" stroke="#000000"/>
    <rect fill="none" x="255.0" width="95.0" y="25.0" height="120.0" stroke="#000000"/>
    <polygon function="amplifier" ID="1101" stroke="#000000" active="1" I2CPage="1" Mask="0x78"
        fill="none" TextLocation="-13, 10" min="0" step="1" points="200.0,215.0 200.0,245.0 
        175.0,230.0" Shift="3" max="9" I2CRegister="40"/>
    <polygon function="amplifier" ID="2101" stroke="#000000" active="1" I2CPage="1" Mask="0x78"
        fill="none" TextLocation="-13, 10" min="0" step="1" points="200.0,260.0 200.0,290.0 
        175.0,275.0" Shift="3" max="9" ActiveColor="0x00bbbb00" I2CRegister="41"/>
    <polygon function="amplifier" ID="1001" CustomGain="1" stroke="#000000" active="1" I2CPage="1"
        Mask="0x7F" fill="none" LinkTo="1101" TextLocation="-13, 10" min="-78" step="0.61" points=
        "300.0,215.0 300.0,245.0 275.0,230.0" Shift="0" max="0" I2CRegister="36"/>
    <polygon function="amplifier" ID="2001" CustomGain="1" stroke="#000000" active="1" I2CPage="1"
        Mask="0x7F" fill="none" LinkTo="2101" TextLocation="-13, 10" min="-78" step="0.61" points=
        "300.0,260.0 300.0,290.0 275.0,275.0" Shift="0" max="0" ActiveColor="0x00bbbb00"
        I2CRegister="37"/>
    <line y2="235.0" fill="none" x1="207.5" x2="200.0" stroke="#000000" y1="242.5"/>
    <line y2="215.0" fill="none" x1="187.5" x2="180.0" stroke="#000000" y1="222.5"/>
    <line y2="215.0" fill="none" x1="287.5" x2="280.0" y1="222.5" stroke="#000000"/>
    <line y2="260.0" fill="none" x1="187.5" x2="180.0" y1="267.5" stroke="#000000"/>
    <line y2="260.0" fill="none" x1="287.5" x2="280.0" y1="267.5" stroke="#000000"/>
    <line y2="280.0" fill="none" x1="207.5" x2="200.0" y1="287.5" stroke="#000000"/>
    <line y2="235.0" fill="none" x1="307.5" x2="300.0" y1="242.5" stroke="#000000"/>
    <line y2="280.0" fill="none" x1="307.5" x2="300.0" y1="287.5" stroke="#000000"/>
    <text x="154.5" y="196.0"><tspan font-family="'Arial', 'Helvetica', sans-serif" font-size="8"
            xml:space="preserve">Class-A/B HP Driver </tspan><tspan xml:space="preserve"> </tspan></text>
    <text x="154.5" y="206.0"><tspan font-size="8" font-family="'Arial', 'Helvetica', sans-serif"
            xml:space="preserve">0dB to 9dB</tspan><tspan xml:space="preserve"> </tspan></text>
    <text x="264.5" y="196.0"><tspan font-size="8" font-family="'Arial', 'Helvetica', sans-serif"
            xml:space="preserve">Analog Attenuation</tspan><tspan xml:space="preserve"> </tspan></text>
    <text x="265.0" y="205.5"><tspan font-family="'Arial', 'Helvetica', sans-serif" font-size="8"
            xml:space="preserve">0dB to -78dB + Mute</tspan><tspan xml:space="preserve"> </tspan></text>
    <text x="324.5" y="224.5"><tspan font-family="'Arial', 'Helvetica', sans-serif" font-size="6"
            xml:space="preserve">MIX_L</tspan><tspan xml:space="preserve"> </tspan></text>
    <text x="324.5" y="269.5"><tspan font-family="'Arial', 'Helvetica', sans-serif" font-size="6"
            xml:space="preserve">MIX_R</tspan><tspan xml:space="preserve"> </tspan></text>
    <rect fill="none" x="150.0" width="95.0" y="185.0" height="120.0" stroke="#000000"/>
    <rect fill="none" x="255.0" width="95.0" height="120.0" y="185.0" stroke="#000000"/>
    <line fill="none" x1="175.0" x2="60.0" y1="230.0" ID="1101" y2="230.0" stroke="#000000" active="1"/>
    <line ActiveColor="0x00bbbb00" fill="none" x1="175.0" x2="60.0" y1="275.0" ID="2101" y2="275.0"
        stroke="#000000" active="1"/>
    <polyline ID="1001" active="1" fill="none" points="300.0,230.0 365.0,230.0 365.0,70.0" stroke="#000000"/>
    <line ActiveColor="0x00bbbb00" fill="none" x1="395.0" x2="300.0" y1="115.0" ID="2001" y2="115.0"
        stroke="#000000" active="1"/>
    <line fill="none" x1="395.0" x2="300.0" y1="70.0" ID="1001" y2="70.0" stroke="#000000" active="1"/>
    <ellipse fill="none" ID="1001" rx="1.25" cx="365.0" ry="1.25" cy="70.0" stroke="#000000" active="1"/>
    <ellipse ActiveColor="0x00bbbb00" fill="none" ID="2001" rx="1.25" cx="375.0" ry="1.25" cy="115.0"
        stroke="#000000" active="1"/>
    <polygon ID="1001" active="1" fill="none" points="395.0,70.0 405.0,60.0 425.0,60.0 425.0,80.0 
        405.0,80.0" stroke="#000000"/>
    <polygon ActiveColor="0x00bbbb00" ID="2001" active="1" fill="none" points="395.0,115.0 
        405.0,105.0 425.0,105.0 425.0,125.0 405.0,125.0" stroke="#000000"/>
    <text x="404.5" y="73.25"><tspan font-family="'Arial', 'Helvetica', sans-serif" font-size="8"
            xml:space="preserve">DAC</tspan><tspan xml:space="preserve"> </tspan></text>
    <text x="404.5" y="118.25"><tspan font-size="8" font-family="'Arial', 'Helvetica', sans-serif"
            xml:space="preserve">DAC</tspan><tspan xml:space="preserve"> </tspan></text>
    <line LinkTo="1001" fill="none" x1="460.0" x2="425.0" y1="70.0" ID="1002" y2="70.0" stroke="#000000"
        active="1"/>
    <line ActiveColor="0x00bbbb00" LinkTo="2001" fill="none" x1="460.0" x2="425.0" y1="115.0" ID="2002"
        y2="115.0" stroke="#000000" active="1"/>
    <line fill="none" x1="275.0" x2="200.0" y1="230.0" ID="1101" y2="230.0" stroke="#000000" active="1"/>
    <line ActiveColor="0x00bbbb00" fill="none" x1="275.0" x2="200.0" y1="275.0" ID="2101" y2="275.0"
        stroke="#000000" active="1"/>
    <ellipse fill="none" ID="1101" rx="1.25" cx="58.75" ry="1.25" cy="230.0" stroke="#000000"
        active="1"/>
    <ellipse ActiveColor="0x00bbbb00" fill="none" ID="2101" rx="1.25" cx="58.75" ry="1.25" cy="275.0"
        stroke="#000000" active="1"/>
    <ellipse ActiveColor="0x00bbbb00" fill="none" ID="2000" rx="1.25" cx="56.25" ry="1.25" cy="122.5"
        stroke="#000000"/>
    <ellipse ActiveColor="0x00bbbb00" fill="none" ID="2000" rx="1.25" cx="56.25" ry="1.25" cy="107.5"
        stroke="#000000"/>
    <ellipse fill="none" ID="1000" rx="1.25" cx="56.25" ry="1.25" cy="77.5" stroke="#000000"/>
    <ellipse fill="none" ID="1000" rx="1.25" cx="56.25" ry="1.25" cy="62.5" stroke="#000000"/>
    <text x="22.166666" y="278.08334"><tspan font-size="8" font-family="'Arial', 'Helvetica', sans-serif"
            xml:space="preserve">HPROUT</tspan><tspan xml:space="preserve"> </tspan></text>
    <text x="22.166666" y="233.08333"><tspan font-family="'Arial', 'Helvetica', sans-serif"
            font-size="8" xml:space="preserve">HPLOUT</tspan><tspan xml:space="preserve"> </tspan></text>
    <text x="19.916666" y="125.583336"><tspan font-size="8" font-family="'Arial', 'Helvetica', sans-serif"
            xml:space="preserve">SPK_RN</tspan><tspan xml:space="preserve"> </tspan></text>
    <text x="19.916666" y="110.583336"><tspan font-family="'Arial', 'Helvetica', sans-serif"
            font-size="8" xml:space="preserve">SPK_RP</tspan><tspan xml:space="preserve"> </tspan></text>
    <text x="19.916666" y="80.583336"><tspan font-family="'Arial', 'Helvetica', sans-serif"
            font-size="8" xml:space="preserve">SPK_LN</tspan><tspan xml:space="preserve"> </tspan></text>
    <text x="19.916666" y="65.583336"><tspan font-family="'Arial', 'Helvetica', sans-serif"
            font-size="8" xml:space="preserve">SPK_LP</tspan><tspan xml:space="preserve"> </tspan></text>
    <rect x="460.0" y="25.0" fill="none" width="50.0" height="280.0" stroke="#000000" function="DConf"/>
    <text x="464.5" y="110.75"><tspan font-family="'Arial', 'Helvetica', sans-serif" font-size="8"
            xml:space="preserve">Digital</tspan><tspan xml:space="preserve"> </tspan></text>
    <text x="465.0" y="120.75"><tspan font-size="8" font-family="'Arial', 'Helvetica', sans-serif"
            xml:space="preserve">Audio</tspan><tspan xml:space="preserve"> </tspan></text>
    <text x="464.5" y="130.75"><tspan font-size="8" font-family="'Arial', 'Helvetica', sans-serif"
            xml:space="preserve">Processing</tspan><tspan xml:space="preserve"> </tspan></text>
    <text x="464.5" y="150.75"><tspan font-size="8" font-family="'Arial', 'Helvetica', sans-serif"
            xml:space="preserve">Serial</tspan><tspan xml:space="preserve"> </tspan></text>
    <text x="464.5" y="160.75"><tspan font-size="8" font-family="'Arial', 'Helvetica', sans-serif"
            xml:space="preserve">Interface</tspan><tspan xml:space="preserve"> </tspan></text>
    <rect function="switch" ID="1001" stroke="#000000" active="1" I2CPage="1" width="16.25" fill="none"
        LinkTo="1000" layout="horizontal" height="7.5" Bit="7" x="217.5" y="62.5" I2CRegister="38"/>
    <ellipse fill="none" ID="1001" rx="1.25" cx="235.0" ry="1.25" cy="70.0" stroke="#000000" active="1"/>
    <ellipse fill="none" ID="1000" rx="1.25" cx="216.25" ry="1.25" cy="70.0" stroke="#000000"/>
    <line fill="none" x1="200.0" x2="215.0" y1="70.0" ID="1000" y2="70.0" stroke="#000000"/>
    <line fill="none" x1="275.0" x2="236.66667" y1="70.0" ID="1001" y2="70.0" stroke="#000000"
        active="1"/>
    <rect function="switch" ID="2001" stroke="#000000" active="1" I2CPage="1" width="16.25" fill="none"
        LinkTo="2000" layout="horizontal" height="7.5" Bit="7" x="217.5" y="107.5" ActiveColor="0x00bbbb00"
        I2CRegister="39"/>
    <ellipse ActiveColor="0x00bbbb00" fill="none" ID="2001" rx="1.25" cx="235.0" ry="1.25" cy="115.0"
        stroke="#000000" active="1"/>
    <ellipse ActiveColor="0x00bbbb00" fill="none" ID="2000" rx="1.25" cx="216.25" ry="1.25" cy="115.0"
        stroke="#000000"/>
    <line ActiveColor="0x00bbbb00" fill="none" x1="200.0" x2="215.0" y1="115.0" ID="2000" y2="115.0"
        stroke="#000000"/>
    <line ActiveColor="0x00bbbb00" fill="none" x1="275.0" x2="236.66667" y1="115.0" ID="2001" y2="115.0"
        stroke="#000000" active="1"/>
    <polyline ActiveColor="0x00bbbb00" ID="2001" active="1" fill="none" points="300.0,275.0 
        375.0,275.0 375.0,115.0" stroke="#000000"/>
</svg>