<?xml version="1.0" standalone="no"?>
<!--Created with Sketsa SVG Editor (http://www.kiyut.com)-->
<svg contentScriptType="text/ecmascript" width="620.0px" xmlns:xlink="http://www.w3.org/1999/xlink"
    baseProfile="full" zoomAndPan="magnify" contentStyleType="text/css" height="400.0px"
    preserveAspectRatio="xMidYMid meet" xmlns="http://www.w3.org/2000/svg" version="1.0">
    <rect x="510.0" y="185.0" fill="none" width="80.66669" shadow="1" height="130.16667" stroke="#000000"
        gradient="1"/>
    <rect x="510.0" y="24.999998" fill="none" width="80.66669" shadow="1" height="130.16667" stroke="#000000"
        gradient="1"/>
    <metadata dll="Codecs\AIC3XXX.DLL"/>
    <rect x="510.0" y="24.999998" fill="none" width="80.66669" height="130.16667" stroke="#000000"
        function="return"/>
    <line y2="375.0" fill="none" x1="100.0" x2="100.0" stroke="#000000" y1="20"/>
    <rect function="toggle" ID="1002" stroke="#000000" I2CPage="0" transform="matrix(1.0 -0.0 0.0 1.0 0.0 -44.0)"
        width="10.0" Mask="0x08" fill="none" height="10.0" Shift="3" Net="1001, 1004, 1003" x="362"
        y="72.0" I2CRegister="32"/>
    <rect function="toggle" ID="1005" stroke="#000000" I2CPage="0" transform="matrix(-1.0 -0.0 0.0 -1.0 956.5 86.0)"
        width="10.0" Mask="0x80" fill="none" height="10.0" Shift="7" Bit="7" Net="8000, 1004, 1006"
        x="638.0" y="38.0" I2CRegister="33"/>
    <rect function="toggle" ID="2002" stroke="#000000" I2CPage="0" transform="matrix(1.0 -0.0 0.0 1.0 0.0 36.0)"
        width="10.0" Mask="0x04" fill="none" height="10.0" Shift="2" Net="2001, 2004, 2003" x="422"
        y="32.0" I2CRegister="32"/>
    <rect function="IOArrow" ID="1000" stroke="#000000" active="1" I2CPage="0" width="8" fill="none"
        LinkTo="1008" layout="horizontal" height="6" Bit="3" Net="1100, 1001" x="96.0" y="25.0"
        ActiveColor="0x00bb00bb" I2CRegister="27"/>
    <g ID="1003" Net="1003">
        <line y2="33.0" fill="none" x1="374.0" x2="510.0" y1="33.0" stroke="#000000"/>
        <ellipse rx="1.25" fill="none" ry="1.25" cx="373" cy="33.0" stroke="#000000"/>
    </g>
    <line ActiveColor="0x00ff6666" fill="none" x1="96" x2="72" y1="28" ID="1100" y2="28" Net="1100"
        stroke="#000000" active="1"/>
    <rect function="IOArrow" ID="2000" stroke="#000000" active="1" I2CPage="0" width="8" fill="none"
        LinkTo="2020" layout="horizontal" height="6" Bit="2" Net="2100, 2001" x="96" y="65.0"
        ActiveColor="0x00bb00bb" I2CRegister="27"/>
    <line ActiveColor="0x00ff33ff" fill="none" x1="96" x2="72" y1="68.0" ID="2100" y2="68.0" Net="2100"
        stroke="#000000" active="1"/>
    <g ID="2003" Net="2003">
        <ellipse rx="1.25" fill="none" ry="1.25" cx="433" cy="73.0" stroke="#000000"/>
        <line y2="73" fill="none" x1="434.5" x2="510.0" y1="73" stroke="#000000"/>
    </g>
    <rect Positions="3" function="toggle" ID="2005" stroke="#000000" I2CPage="0" transform="matrix(-1.0 -0.0 0.0 -1.0 546.0 171.0)"
        width="10.0" Mask="0x30" fill="none" height="15.0" Bit="3" Shift="4" Net="10000, 9001, 2004, 2006"
        x="268.0" y="78.0" I2CRegister="33"/>
    <rect function="toggle" ID="3002" stroke="#000000" I2CPage="0" width="10.0" Mask="0x01" fill="none"
        height="10.0" Shift="0" Net="3001, 3004, 3003" x="462" y="108" I2CRegister="32"/>
    <rect function="toggle" ID="10001" stroke="#000000" I2CPage="0" width="10.0" Mask="0x02" fill="none"
        height="10.0" Shift="1" Net="2001, 9001, 10002" x="422.0" y="88" I2CRegister="32"/>
    <rect function="toggle" ID="8001" stroke="#000000" I2CPage="0" transform="matrix(-1.0 0.0 0.0 1.0 506.0 0.0)"
        width="10.0" Mask="0x40" fill="none" height="10.0" Shift="6" Net="1001, 8000, 8002" x="248.0"
        y="193.0" I2CRegister="33"/>
    <rect function="toggle" ID="4002" stroke="#000000" I2CPage="0" transform="matrix(-1.0 -0.0 0.0 -1.0 376.0 296.0)"
        width="10.0" Mask="0x02" fill="none" height="10.0" Shift="1" Net="3006, 4003, 4001" x="183.0"
        y="143.0" I2CRegister="33"/>
    <rect Positions="3" function="toggle" ID="6001" stroke="#000000" I2CPage="0" transform="matrix(-1.0 -0.0 0.0 1.0 546.0 0.0)"
        width="10.0" Mask="0x0C" fill="none" height="15.0" Bit="2" Shift="2" Net="10000, 9001, 2001, 6002"
        x="268.0" y="243.0" I2CRegister="33"/>
    <rect function="toggle" ID="3005" stroke="#000000" I2CPage="0" transform="matrix(-1.0 0.0 0.0 1.0 376.0 0.0)"
        width="10.0" Mask="0x01" fill="none" height="10.0" Shift="0" Net="3001, 4003, 3006" x="183.0"
        y="123.0" I2CRegister="33"/>
    <rect x="510.0" y="185.0" fill="none" width="80.66669" height="130.16667" stroke="#000000"
        function="CLK"/>
    <g ID="1001" Net="1001">
        <ellipse rx="1.25" fill="none" ry="1.25" cx="260.0" cy="193.0" stroke="#000000"/>
        <line y2="193.0" fill="none" x1="261.0" x2="340.0" y1="193.0" stroke="#000000"/>
        <line y2="193.0" fill="none" x1="340.0" x2="340.0" y1="28.0" stroke="#000000"/>
        <line y2="28.0" fill="none" x1="104.0" x2="359.0" y1="28.0" stroke="#000000"/>
        <ellipse rx="1.25" fill="none" ry="1.25" cx="360.0" cy="28.0" stroke="#000000"/>
        <ellipse rx="1.25" fill="none" ry="1.25" cx="340.0" cy="28.0" stroke="#000000"/>
        <ellipse rx="1.25" fill="none" ry="1.25" cx="275" cy="28.0" stroke="#000000"/>
        <line y2="43" fill="none" x1="275" x2="282" y1="43" stroke="#000000"/>
        <line y2="43" fill="none" x1="275" x2="275" stroke="#000000" y1="28"/>
        <ellipse rx="1.25" fill="none" ry="1.25" cx="283.0" cy="43" stroke="#000000"/>
    </g>
    <g ID="1004" Net="1004">
        <line y2="183.0" fill="none" x1="104.0" x2="360.0" y1="183.0" stroke="#000000"/>
        <ellipse rx="1.25" fill="none" ry="1.25" cx="215" cy="183.0" stroke="#000000"/>
        <line y2="183.0" fill="none" x1="360.0" x2="360.0" y1="39" stroke="#000000"/>
        <ellipse rx="1.25" fill="none" ry="1.25" cx="360.0" cy="38.0" stroke="#000000"/>
        <line y2="38.0" fill="none" x1="359.0" x2="321.0" y1="38.0" stroke="#000000"/>
        <ellipse transform="matrix(-1.0 0.0 0.0 1.0 956.5 0.0)" fill="none" rx="1.25" cx="636.5" ry="1.25"
            cy="38.0" stroke="#000000"/>
        <ellipse rx="1.25" fill="none" ry="1.25" cx="223.0" cy="198" stroke="#000000"/>
        <line y2="198" fill="none" x1="215" x2="222" y1="198" stroke="#000000"/>
        <line y2="198" fill="none" x1="215" x2="215" stroke="#000000" y1="183"/>
    </g>
    <g ID="2001" Net="2001">
        <line y2="68" fill="none" x1="104" x2="419" y1="68" stroke="#000000"/>
        <ellipse rx="1.25" fill="none" ry="1.25" cx="280.0" cy="258.0" stroke="#000000"/>
        <line y2="258.0" fill="none" x1="281.0" x2="400.0" y1="258.0" stroke="#000000"/>
        <line y2="258.0" fill="none" x1="400.0" x2="400.0" y1="68" stroke="#000000"/>
        <ellipse rx="1.25" fill="none" ry="1.25" cx="420.0" cy="88.0" stroke="#000000"/>
        <line y2="88" fill="none" x1="419.0" x2="400.0" y1="88" stroke="#000000"/>
        <ellipse rx="1.25" fill="none" ry="1.25" cx="400.0" cy="88.0" stroke="#000000"/>
        <ellipse rx="1.25" fill="none" ry="1.25" cx="420.0" cy="68.0" stroke="#000000"/>
        <ellipse rx="1.25" fill="none" ry="1.25" cx="400.0" cy="68.0" stroke="#000000"/>
        <ellipse rx="1.25" fill="none" ry="1.25" cx="243.0" cy="85.5" stroke="#000000"/>
        <line y2="85.5" fill="none" x1="235" x2="242" stroke="#000000" y1="85.5"/>
        <line y2="85.5" fill="none" x1="235" x2="235" y1="68" stroke="#000000"/>
        <ellipse rx="1.25" fill="none" ry="1.25" cx="235" cy="68.0" stroke="#000000"/>
    </g>
    <g ID="2004" Net="2004">
        <line y2="233.0" fill="none" x1="104.0" x2="380.0" stroke="#000000" y1="233.0"/>
        <line y2="233.0" fill="none" x1="380.0" x2="380.0" y1="78" stroke="#000000"/>
        <ellipse rx="1.25" fill="none" ry="1.25" cx="280" cy="78" stroke="#000000"/>
        <line y2="78" fill="none" x1="281" x2="419" y1="78" stroke="#000000"/>
        <ellipse rx="1.25" fill="none" ry="1.25" cx="380" cy="78" stroke="#000000"/>
        <ellipse rx="1.25" fill="none" ry="1.25" cx="420" cy="78.0" stroke="#000000"/>
        <line y2="250.5" fill="none" x1="235.0" x2="242.0" y1="250.5" stroke="#000000"/>
        <line y2="250.5" fill="none" x1="235.0" x2="235.0" stroke="#000000" y1="233"/>
        <ellipse rx="1.25" fill="none" ry="1.25" cx="235" cy="233" stroke="#000000"/>
        <ellipse rx="1.25" fill="none" ry="1.25" cx="243.0" cy="250.5" stroke="#000000"/>
    </g>
    <g ID="3001" ActiveColor="0x0022ff22" active="1" Net="3001">
        <ellipse rx="1.25" fill="none" ry="1.25" cx="460" cy="108.0" stroke="#000000"/>
        <line y2="108" fill="none" x1="100" x2="72" y1="108.0" stroke="#000000"/>
        <polygon fill="none" points="96.0,111.0 96.0,105.0 100.0,108" stroke="#000000"/>
        <line y2="108" fill="none" x1="100" x2="459" y1="108" stroke="#000000"/>
        <ellipse rx="1.25" fill="none" ry="1.25" cx="195.0" cy="123.0" stroke="#000000"/>
        <line y2="123" fill="none" x1="196" x2="215.0" stroke="#000000" y1="123"/>
        <line y2="123" fill="none" x1="215.0" x2="215.0" stroke="#000000" y1="108"/>
        <ellipse rx="1.25" fill="none" ry="1.25" cx="215.0" cy="108" stroke="#000000"/>
    </g>
    <g ID="3003" Net="3003">
        <ellipse rx="1.25" fill="none" ry="1.25" cx="473.0" cy="113.0" stroke="#000000"/>
        <line y2="113" fill="none" x1="474" x2="510.0" y1="113" stroke="#000000"/>
    </g>
    <g ID="10002" Net="10002">
        <ellipse rx="1.25" fill="none" ry="1.25" cx="433.0" cy="93.0" stroke="#000000"/>
        <line y2="93" fill="none" x1="434" x2="510.0" y1="93" stroke="#000000"/>
    </g>
    <g ID="3006" Net="3006">
        <line y2="157.5" fill="none" x1="195.0" x2="195.0" y1="154.0" stroke="#000000"/>
        <line y2="157.5" fill="none" x1="195.0" x2="135" y1="157.5" stroke="#000000"/>
        <ellipse rx="1.25" fill="none" ry="1.25" cx="135.0" cy="157.5" stroke="#000000"/>
        <ellipse rx="1.25" fill="none" ry="1.25" cx="195.0" cy="153.0" stroke="#000000"/>
        <line y2="128.0" fill="none" x1="135.0" x2="180.0" y1="128.0" stroke="#000000"/>
        <ellipse rx="1.25" fill="none" ry="1.25" cx="181.0" cy="128.0" stroke="#000000"/>
        <line y2="318" fill="none" x1="135" x2="135" stroke="#000000" y1="128"/>
        <line y2="318" fill="none" x1="100.0" x2="135" stroke="#000000" y1="318"/>
        <polygon fill="none" points="104.0,321 104.0,315 100.0,318" stroke="#000000"/>
    </g>
    <g ID="4003" ActiveColor="0x000088ff" active="1" Net="4003">
        <line y2="143.0" fill="none" x1="196.0" x2="510.0" stroke="#000000" y1="143.0"/>
        <ellipse rx="1.25" fill="none" ry="1.25" cx="195.0" cy="143.0" stroke="#000000"/>
        <ellipse rx="1.25" fill="none" ry="1.25" cx="215.0" cy="143.0" stroke="#000000"/>
        <ellipse rx="1.25" fill="none" ry="1.25" cx="195.0" cy="133.0" stroke="#000000"/>
        <line y2="133" fill="none" x1="196" x2="215.0" y1="133" stroke="#000000"/>
        <line y2="143" fill="none" x1="215.0" x2="215.0" y1="133" stroke="#000000"/>
    </g>
    <g ID="4001" Net="4001">
        <line y2="148.0" fill="none" x1="100.0" x2="72.0" y1="148.0" stroke="#000000"/>
        <polygon fill="none" points="104.0,151.0 104.0,145.0 100.0,148" stroke="#000000"/>
        <line y2="148.0" fill="none" x1="100" x2="180.0" stroke="#000000" y1="148.0"/>
        <ellipse rx="1.25" fill="none" ry="1.25" cx="181.0" cy="148.0" stroke="#000000"/>
    </g>
    <g ID="8000" ActiveColor="0x00ffff00" active="1" Net="8000">
        <ellipse rx="1.25" fill="none" ry="1.25" cx="260.0" cy="203.0" stroke="#000000"/>
        <line y2="203.0" fill="none" x1="261.0" x2="510.0" y1="203.0" stroke="#000000"/>
        <ellipse rx="1.25" fill="none" ry="1.25" cx="320.0" cy="203.0" stroke="#000000"/>
        <ellipse transform="matrix(-1.0 0.0 0.0 1.0 956.5 0.0)" fill="none" rx="1.25" cx="636.5" ry="1.25"
            cy="48.0" stroke="#000000"/>
        <line y2="203.0" fill="none" x1="320.0" x2="320.0" y1="49" stroke="#000000"/>
    </g>
    <g ActiveColor="0x0000bb00" ID="3004" active="1" Net="3004">
        <line y2="278.0" fill="none" x1="100.0" x2="460.0" stroke="#000000" y1="278.0"/>
        <ellipse rx="1.25" fill="none" ry="1.25" cx="460.0" cy="118.0" stroke="#000000"/>
        <line y2="278.0" fill="none" x1="460.0" x2="460.0" y1="119" stroke="#000000"/>
        <line y2="278" fill="none" x1="100.0" x2="72.0" stroke="#000000" y1="278"/>
        <polygon fill="none" points="96.0,281 96.0,275 100.0,278" stroke="#000000"/>
    </g>
    <text x="19.583332" y="30.583328"><tspan font-size="8" font-family="'Arial', 'Helvetica', sans-serif"
            xml:space="preserve">primary BCLK</tspan><tspan xml:space="preserve"> </tspan></text>
    <text x="19.583332" y="70.58333"><tspan font-family="'Arial', 'Helvetica', sans-serif"
            font-size="8" xml:space="preserve">primary WCLK</tspan><tspan xml:space="preserve"> </tspan></text>
    <text x="19.583332" y="110.58333"><tspan font-size="8" font-family="'Arial', 'Helvetica', sans-serif"
            xml:space="preserve">primary DIN</tspan><tspan xml:space="preserve"> </tspan></text>
    <text x="19.583332" y="150.58333"><tspan font-size="8" font-family="'Arial', 'Helvetica', sans-serif"
            xml:space="preserve">primary DOUT</tspan><tspan xml:space="preserve"> </tspan></text>
    <text x="514.5833" y="35.58333"><tspan font-family="'Arial', 'Helvetica', sans-serif" font-size="8"
            xml:space="preserve">-&gt;BCLK</tspan><tspan xml:space="preserve"> </tspan></text>
    <text x="514.5833" y="75.58333"><tspan font-size="8" font-family="'Arial', 'Helvetica', sans-serif"
            xml:space="preserve">-&gt;DAC WCLK</tspan><tspan xml:space="preserve"> </tspan></text>
    <text x="514.5833" y="95.58333"><tspan font-size="8" font-family="'Arial', 'Helvetica', sans-serif"
            xml:space="preserve">-&gt;ADC WCLK</tspan><tspan xml:space="preserve"> </tspan></text>
    <text x="514.5833" y="115.58333"><tspan font-size="8" font-family="'Arial', 'Helvetica', sans-serif"
            xml:space="preserve">-&gt;DIN</tspan><tspan xml:space="preserve"> </tspan></text>
    <text x="514.5833" y="145.58333"><tspan font-size="8" font-family="'Arial', 'Helvetica', sans-serif"
            xml:space="preserve">&lt;-DOUT</tspan><tspan xml:space="preserve"> </tspan></text>
    <text x="514.5833" y="205.58333"><tspan font-size="8" font-family="'Arial', 'Helvetica', sans-serif"
            xml:space="preserve">&lt;-BCLK</tspan><tspan xml:space="preserve"> </tspan></text>
    <text x="514.5833" y="215.58333"><tspan font-size="8" font-family="'Arial', 'Helvetica', sans-serif"
            xml:space="preserve">&lt;-DAC FS (WCLK)</tspan><tspan xml:space="preserve"> </tspan></text>
    <text x="514.5833" y="225.58333"><tspan font-family="'Arial', 'Helvetica', sans-serif"
            font-size="8" xml:space="preserve">&lt;-ADC FS (WCLK)</tspan><tspan xml:space="preserve"> </tspan></text>
    <text x="509.5833" y="180.58333"><tspan font-family="'Arial', 'Helvetica', sans-serif"
            font-size="8" xml:space="preserve">Internal Clock Gen Module</tspan><tspan xml:space="preserve"> </tspan></text>
    <text x="509.0833" y="20.583328"><tspan font-size="8" font-family="'Arial', 'Helvetica', sans-serif"
            xml:space="preserve">Back To Codec</tspan><tspan xml:space="preserve"> </tspan></text>
    <text x="269.0833" y="10.583328"><tspan font-size="10" font-family="'Arial', 'Helvetica', sans-serif"
            xml:space="preserve">Clock Routing</tspan><tspan xml:space="preserve"> </tspan></text>
    <rect function="switch" ID="1008" stroke="#000000" active="0" I2CPage="300" width="10" fill="none"
        layout="horizontal" height="5" Bit="0" Net="1001, 1006" x="285" y="38" I2CRegister="0"/>
    <g ID="1006" Net="1006">
        <ellipse transform="matrix(-1.0 0.0 0.0 1.0 956.5 0.0)" fill="none" rx="1.25" cx="650.0" ry="1.25"
            cy="43.0" stroke="#000000"/>
        <ellipse rx="1.25" fill="none" ry="1.25" cx="297" cy="43.0" stroke="#000000"/>
        <line y2="43" fill="none" x1="298" x2="305" stroke="#000000" y1="43"/>
    </g>
    <rect function="switch" ID="2020" stroke="#000000" active="0" I2CPage="300" width="10" fill="none"
        layout="horizontal" height="5" Bit="0" Net="2001, 2006" x="245" y="80.5" I2CRegister="0"/>
    <g ID="2006" Net="2006">
        <line y2="85.5" fill="none" x1="258" x2="265" y1="85.5" stroke="#000000"/>
        <ellipse rx="1.25" fill="none" ry="1.25" cx="257" cy="85.5" stroke="#000000"/>
        <ellipse rx="1.25" fill="none" ry="1.25" cx="266" cy="85.5" stroke="#000000"/>
    </g>
    <rect function="switch" ID="8020" stroke="#000000" active="0" I2CPage="300" width="10" fill="none"
        layout="horizontal" height="5" Bit="0" Net="1004, 8002" x="225" y="193" I2CRegister="0"/>
    <g ID="8002" Net="8002">
        <line y2="198" fill="none" x1="238" x2="245" stroke="#000000" y1="198"/>
        <ellipse rx="1.25" fill="none" ry="1.25" cx="237" cy="198" stroke="#000000"/>
        <ellipse rx="1.25" fill="none" ry="1.25" cx="246" cy="198" stroke="#000000"/>
    </g>
    <rect function="switch" ID="6020" stroke="#000000" active="0" I2CPage="300" width="10" fill="none"
        layout="horizontal" height="5" Bit="0" Net="2004, 6002" x="245.0" y="245.5" I2CRegister="0"/>
    <g ID="6002" Net="6002">
        <line y2="250.5" fill="none" x1="258.0" x2="265.0" stroke="#000000" y1="250.5"/>
        <ellipse rx="1.25" fill="none" ry="1.25" cx="257.0" cy="250.5" stroke="#000000"/>
        <ellipse rx="1.25" fill="none" ry="1.25" cx="266.0" cy="250.5" stroke="#000000"/>
    </g>
    <rect function="switch" ID="9020" stroke="#000000" active="0" I2CPage="300" width="10" fill="none"
        layout="horizontal" height="5" Bit="0" Net="9001,9002" x="435.0" y="218" I2CRegister="0"/>
    <g ActiveColor="0x00ff00aa" ID="9002" active="1" Net="9002">
        <line y2="223.0" fill="none" x1="448" x2="510.0" stroke="#000000" y1="223.0"/>
        <ellipse rx="1.25" fill="none" ry="1.25" cx="447.0" cy="223" stroke="#000000"/>
    </g>
    <g ID="9001" Net="9001">
        <ellipse rx="1.25" fill="none" ry="1.25" cx="420.0" cy="98.0" stroke="#000000"/>
        <line y2="358.0" fill="none" x1="104.0" x2="420.0" y1="358.0" stroke="#000000"/>
        <line y2="358.0" fill="none" x1="420.0" x2="420.0" y1="99" stroke="#000000"/>
        <ellipse rx="1.25" fill="none" ry="1.25" cx="420" cy="223.0" stroke="#000000"/>
        <ellipse rx="1.25" fill="none" ry="1.25" cx="433.0" cy="223" stroke="#000000"/>
        <line y2="250.5" fill="none" x1="281.0" x2="300.0" y1="250.5" stroke="#000000"/>
        <line y2="85.5" fill="none" x1="300.0" x2="281" y1="85.5" stroke="#000000"/>
        <line y2="250.5" fill="none" x1="300.0" x2="300.0" y1="85" stroke="#000000"/>
        <ellipse rx="1.25" fill="none" ry="1.25" cx="300" cy="223.0" stroke="#000000"/>
        <line y2="223.0" fill="none" x1="300" x2="432" y1="223.0" stroke="#000000"/>
        <ellipse rx="1.25" fill="none" ry="1.25" cx="280.0" cy="250.5" stroke="#000000"/>
        <ellipse rx="1.25" fill="none" ry="1.25" cx="280" cy="85.5" stroke="#000000"/>
    </g>
    <g ActiveColor="0x008800cc" ID="10000" active="1" Net="10000">
        <line y2="213.0" fill="none" x1="280" x2="510.0" y1="213.0" stroke="#000000"/>
        <ellipse rx="1.25" fill="none" ry="1.25" cx="280" cy="213.0" stroke="#000000"/>
        <ellipse rx="1.25" fill="none" ry="1.25" cx="280.0" cy="243.0" stroke="#000000"/>
        <ellipse rx="1.25" fill="none" ry="1.25" cx="280" cy="93" stroke="#000000"/>
        <line y2="242.0" fill="none" x1="280.0" x2="280.0" y1="94.0" stroke="#000000"/>
    </g>
    <rect function="IOArrow" ID="5000" stroke="#000000" active="1" I2CPage="300" width="8" fill="none"
        LinkTo="8020, 5200" layout="horizontal" height="6" Bit="3" Net="5100, 1004" x="96.0" y="180"
        I2CRegister="0" ActiveColor="0x00bb00bb"/>
    <line ActiveColor="0x00880000" fill="none" x1="96.0" x2="72.0" y1="183" y2="183" ID="5100" Net="5100"
        stroke="#000000" active="1"/>
    <rect function="IOArrow" ID="6000" stroke="#000000" active="1" I2CPage="0" width="8" fill="none"
        LinkTo="6020" layout="horizontal" height="6" Bit="2" Net="6100, 2004" x="96.0" y="230"
        I2CRegister="27" ActiveColor="0x00bb00bb"/>
    <line ActiveColor="0x00880088" fill="none" x1="96.0" x2="72.0" y1="233" y2="233" ID="6100" Net="6100"
        stroke="#000000" active="1"/>
    <text x="9.916665" y="185.91666"><tspan font-family="'Arial', 'Helvetica', sans-serif"
            font-size="8" xml:space="preserve">secondary BCLK</tspan><tspan xml:space="preserve"> </tspan></text>
    <text x="9.916665" y="235.91666"><tspan font-size="8" font-family="'Arial', 'Helvetica', sans-serif"
            xml:space="preserve">secondary WCLK</tspan><tspan xml:space="preserve"> </tspan></text>
    <text x="16.583332" y="278.91666"><tspan font-family="'Arial', 'Helvetica', sans-serif"
            font-size="8" xml:space="preserve">secondary DIN</tspan><tspan xml:space="preserve"> </tspan></text>
    <text x="9.916665" y="319.25"><tspan font-family="'Arial', 'Helvetica', sans-serif" font-size="8"
            xml:space="preserve">secondary DOUT</tspan><tspan xml:space="preserve"> </tspan></text>
    <rect function="IOArrow" ID="9000" stroke="#000000" active="1" I2CPage="0" width="8" fill="none"
        LinkTo="9020" layout="horizontal" height="6" Bit="2" Net="9100, 9001" x="96.0" y="355"
        I2CRegister="27" ActiveColor="0x00bb00bb"/>
    <line ActiveColor="0x0000ff88" fill="none" x1="96.0" x2="72.0" y1="358" ID="2100" y2="358" Net="9100"
        stroke="#000000" active="1"/>
    <text x="19.583332" y="359.24997"><tspan font-family="'Arial', 'Helvetica', sans-serif"
            font-size="8" xml:space="preserve">ADC_WCLK</tspan><tspan xml:space="preserve"> </tspan></text>
    <rect x="50" LinkTo="5000, 6200, 7200, 8200, 9200" y="190" fill="none" width="19.0" ID="5200"
        height="6.5" stroke="#000000" function="PinSelect"/>
    <rect x="50.0" LinkTo="6000, 5200, 7200, 8200, 9200" y="240.0" fill="none" width="19.0" ID="6200"
        height="6.5" stroke="#000000" function="PinSelect"/>
    <rect x="50.0" LinkTo="5200, 6200, 8200, 9200, 3004" y="282.5" fill="none" width="19.0" ID="7200"
        height="6.5" stroke="#000000" function="PinSelect"/>
    <rect x="50.0" LinkTo="5200, 6200, 7200, 9200, 8003" y="322.5" fill="none" width="19.0" ID="8200"
        height="6.5" stroke="#000000" function="PinSelect"/>
    <rect x="50.0" LinkTo="9000, 5200, 6200, 7200, 8200" y="362.5" fill="none" width="19.0" ID="9200"
        height="6.5" stroke="#000000" function="PinSelect"/>
    <line fill="none" x1="100.0" x2="72.0" y1="318" ID="8003" y2="318" Net="3006" stroke="#000000"/>
</svg>