<?xml version="1.0" standalone="no"?>
<!--Created with Sketsa SVG Editor (http://www.kiyut.com)-->
<svg contentScriptType="text/ecmascript" width="1000.0px" xmlns:xlink="http://www.w3.org/1999/xlink"
    baseProfile="full" zoomAndPan="magnify" contentStyleType="text/css" height="1200.0px"
    preserveAspectRatio="xMidYMid meet" xmlns="http://www.w3.org/2000/svg" version="1.0">
    <rect x="680.0" y="150.0" fill="none" width="50.0" shadow="1" height="343.3333" stroke="#000000"
        gradient="1"/>
    <rect x="380.0" y="20.0" fill="none" width="50.0" shadow="1" height="40.0" stroke="#000000"
        gradient="1"/>
    <rect x="150.0" y="285.0" fill="none" width="95.0" shadow="1" height="120.0" stroke="#000000"
        gradient="1"/>
    <rect x="255.0" y="285.0" fill="none" width="95.0" shadow="1" height="120.0" stroke="#000000"
        gradient="1"/>
    <rect x="255.0" y="125.0" fill="none" width="95.0" shadow="1" height="120.0" stroke="#000000"
        gradient="1"/>
    <rect x="150.0" y="124.333336" fill="none" width="95.0" shadow="1" height="120.0" stroke="#000000"
        gradient="1"/>
    <metadata id="I2CData" dll="Codecs\AIC3XXX.DLL" file="Codecs\DAC3101_USB_Init.txt"/>
    <rect x="450.0" y="20.0" fill="none" width="110.0" shadow="1" height="40.0" stroke="#000000"
        gradient="1"/>
    <text x="460" y="37.0"><tspan font-size="8" font-family="'Arial', 'Helvetica', sans-serif"
            xml:space="preserve">Audio Output Stage</tspan><tspan xml:space="preserve"> </tspan></text>
    <text x="460.0" y="50"><tspan font-family="'Arial', 'Helvetica', sans-serif" font-size="8"
            xml:space="preserve">Power Management</tspan><tspan xml:space="preserve"> </tspan></text>
    <line y2="40.0" fill="none" x1="450.0" x2="430.0" stroke="#000000" y1="40.0"/>
    <rect x="380.0" y="20.0" fill="none" width="50.0" height="40.0" stroke="#000000" function="DePop"/>
    <text x="385" y="37.0"><tspan font-size="8" font-family="'Arial', 'Helvetica', sans-serif"
            xml:space="preserve">De-Pop</tspan><tspan xml:space="preserve"> </tspan></text>
    <text x="385" y="50"><tspan font-family="'Arial', 'Helvetica', sans-serif" font-size="8"
            xml:space="preserve">SoftStart</tspan><tspan xml:space="preserve"> </tspan></text>
    <text x="314.0" y="27.0"><tspan font-family="'Arial', 'Helvetica', sans-serif" font-size="6"
            xml:space="preserve">VOL_RAMP</tspan><tspan xml:space="preserve"> </tspan></text>
    <text x="314.0" y="37.0"><tspan font-family="'Arial', 'Helvetica', sans-serif" font-size="6"
            xml:space="preserve">PWR_DOWN_SPKR</tspan><tspan xml:space="preserve"> </tspan></text>
    <text x="314.0" y="47.0"><tspan font-family="'Arial', 'Helvetica', sans-serif" font-size="6"
            xml:space="preserve">PWR_DOWN_HP</tspan><tspan xml:space="preserve"> </tspan></text>
    <text x="409.5" y="88"><tspan font-size="6" font-family="'Arial', 'Helvetica', sans-serif"
            xml:space="preserve">RC_CLK</tspan><tspan xml:space="preserve"> </tspan></text>
    <line y2="175.0" fill="none" x1="307.5" x2="300.0" y1="182.5" stroke="#000000"/>
    <line y2="220.0" fill="none" x1="307.5" x2="300.0" y1="227.5" stroke="#000000"/>
    <text x="154.5" y="136.0"><tspan font-family="'Arial', 'Helvetica', sans-serif" font-size="8"
            xml:space="preserve">Class-D Speaker Driver </tspan><tspan xml:space="preserve"> </tspan></text>
    <text x="154.5" y="146.0"><tspan font-size="8" font-family="'Arial', 'Helvetica', sans-serif"
            xml:space="preserve">6dB to 24dB</tspan><tspan xml:space="preserve"> </tspan></text>
    <text x="264.5" y="136.0"><tspan font-size="8" font-family="'Arial', 'Helvetica', sans-serif"
            xml:space="preserve">Analog Attenuation</tspan><tspan xml:space="preserve"> </tspan></text>
    <text x="265.0" y="145.5"><tspan font-family="'Arial', 'Helvetica', sans-serif" font-size="8"
            xml:space="preserve">0dB to -78dB + Mute</tspan><tspan xml:space="preserve"> </tspan></text>
    <text x="324.5" y="164.5"><tspan font-family="'Arial', 'Helvetica', sans-serif" font-size="6"
            xml:space="preserve">MIX_L</tspan><tspan xml:space="preserve"> </tspan></text>
    <text x="324.5" y="209.5"><tspan font-family="'Arial', 'Helvetica', sans-serif" font-size="6"
            xml:space="preserve">MIX_R</tspan><tspan xml:space="preserve"> </tspan></text>
    <polyline fill="none" points="405.0,60.0 405.0,90.0 435.0,90.0" stroke="#000000"/>
    <text x="379.5" y="103"><tspan font-family="'Arial', 'Helvetica', sans-serif" font-size="6"
            xml:space="preserve">PWR_DOWN_SPKR</tspan><tspan xml:space="preserve"> </tspan></text>
    <line y2="315.0" fill="none" x1="187.5" x2="180.0" y1="322.5" stroke="#000000"/>
    <line y2="315.0" fill="none" x1="287.5" x2="280.0" stroke="#000000" y1="322.5"/>
    <line y2="360.0" fill="none" x1="287.5" x2="280.0" stroke="#000000" y1="367.5"/>
    <line y2="380.0" fill="none" x1="207.5" x2="200.0" stroke="#000000" y1="387.5"/>
    <text x="154.5" y="296.0"><tspan font-size="8" font-family="'Arial', 'Helvetica', sans-serif"
            xml:space="preserve">Class-A/B HP Driver </tspan><tspan xml:space="preserve"> </tspan></text>
    <text x="154.5" y="306.0"><tspan font-family="'Arial', 'Helvetica', sans-serif" font-size="8"
            xml:space="preserve">0dB to 9dB</tspan><tspan xml:space="preserve"> </tspan></text>
    <text x="264.5" y="296.0"><tspan font-family="'Arial', 'Helvetica', sans-serif" font-size="8"
            xml:space="preserve">Analog Attenuation</tspan><tspan xml:space="preserve"> </tspan></text>
    <text x="265.0" y="305.5"><tspan font-size="8" font-family="'Arial', 'Helvetica', sans-serif"
            xml:space="preserve">0dB to -78dB + Mute</tspan><tspan xml:space="preserve"> </tspan></text>
    <text x="324.5" y="324.5"><tspan font-size="6" font-family="'Arial', 'Helvetica', sans-serif"
            xml:space="preserve">MIX_L</tspan><tspan xml:space="preserve"> </tspan></text>
    <text x="324.5" y="369.5"><tspan font-size="6" font-family="'Arial', 'Helvetica', sans-serif"
            xml:space="preserve">MIX_R</tspan><tspan xml:space="preserve"> </tspan></text>
    <text x="389.5" y="423.0"><tspan font-size="6" font-family="'Arial', 'Helvetica', sans-serif"
            xml:space="preserve">PWR_DOWN_HP</tspan><tspan xml:space="preserve"> </tspan></text>
    <text x="400.0" y="261"><tspan font-size="6" font-family="'Arial', 'Helvetica', sans-serif"
            xml:space="preserve">VOL_RAMP</tspan><tspan xml:space="preserve"> </tspan></text>
    <ellipse fill="none" ID="1001" rx="10.0" cx="405.0" Net="30001, 10003, 40001, 10004" ry="10.0"
        cy="170.0" stroke="#000000" function="mixer"/>
    <ellipse ActiveColor="0x00bbbb00" fill="none" ID="2001" rx="10.0" cx="405.0" Net="20003, 30002, 20004"
        cy="215.0" ry="10.0" stroke="#000000" function="mixer"/>
    <polyline ActiveColor="0x00bbbb00" ID="2001" fill="none" points="408.75,210.0 401.25,210.0 
        407.5,215.0 401.25,220.0 408.75,220.0" stroke="#000000"/>
    <text x="584.5" y="173.25"><tspan font-family="'Arial', 'Helvetica', sans-serif" font-size="8"
            xml:space="preserve">DVol</tspan><tspan xml:space="preserve"> </tspan></text>
    <text x="584.5" y="218.25"><tspan font-size="8" font-family="'Arial', 'Helvetica', sans-serif"
            xml:space="preserve">DVol</tspan><tspan xml:space="preserve"> </tspan></text>
    <text x="456.83334" y="147.54167"><tspan font-family="'Arial', 'Helvetica', sans-serif"
            font-size="6" xml:space="preserve">AUX1</tspan><tspan xml:space="preserve"> </tspan></text>
    <text x="459.41666" y="187.70833"><tspan font-family="'Arial', 'Helvetica', sans-serif"
            font-size="6" xml:space="preserve">MIC</tspan><tspan xml:space="preserve"> </tspan></text>
    <text x="456.83334" y="231.08333"><tspan font-family="'Arial', 'Helvetica', sans-serif"
            font-size="6" xml:space="preserve">AUX1</tspan><tspan xml:space="preserve"> </tspan></text>
    <line y2="220.0" fill="none" x1="565.0" x2="557.5" y1="227.5" stroke="#000000"/>
    <ellipse rx="1.25" fill="none" ry="1.25" cx="565.0" cy="227.5" stroke="#000000"/>
    <ellipse fill="none" ID="1006" rx="10.0" cx="630.0" Net="10001, 15001, 10002" ry="10.0" cy="170.0"
        stroke="#000000" function="mixer"/>
    <ellipse ActiveColor="0x00bbbb00" fill="none" ID="2006" rx="10.0" cx="630.0" Net="20001, 15000, 20002"
        cy="215.0" ry="10.0" stroke="#000000" function="mixer"/>
    <polyline fill="none" points="565.0,252.5 565.0,182.5 557.5,175.0" stroke="#000000"/>
    <rect x="555.0" y="280.0" fill="none" width="20.0" height="12.5" stroke="#000000" function="beep"/>
    <text x="557.0" y="289.25"><tspan font-size="6" font-family="'Arial', 'Helvetica', sans-serif"
            xml:space="preserve">BEEP</tspan><tspan xml:space="preserve"> </tspan></text>
    <line y2="265.0" fill="none" x1="565.0" x2="565.0" stroke="#000000" y1="280.0"/>
    <g>
        <line y2="40.0" fill="none" x1="380.0" x2="310.0" stroke="#000000" y1="40.0"/>
        <polyline fill="none" points="435.0,105.0 300.0,105.0 300.0,125.0" stroke="#000000"/>
        <polyline fill="none" points="300.0,105.0 200.0,105.0 200.0,125.0" stroke="#000000"/>
        <ellipse rx="1.25" fill="none" ry="1.25" cx="300.0" cy="105.0" stroke="#000000"/>
    </g>
    <g>
        <line y2="30.0" fill="none" x1="380.0" x2="310.0" stroke="#000000" y1="30.0"/>
        <polyline fill="none" points="435.0,265.0 300.0,265.0 300.0,285.0" stroke="#000000"/>
        <line y2="265.0" fill="none" x1="300.0" x2="300.0" y1="245.0" stroke="#000000"/>
        <ellipse rx="1.25" fill="none" ry="1.25" cx="300.0" cy="265.0" stroke="#000000"/>
    </g>
    <g>
        <line y2="50.0" fill="none" x1="380.0" x2="310.0" stroke="#000000" y1="50.0"/>
        <polyline fill="none" points="435.0,425.0 300.0,425.0 300.0,405.0" stroke="#000000"/>
        <polyline fill="none" points="300.0,425.0 200.0,425.0 200.0,405.0" stroke="#000000"/>
        <ellipse rx="1.25" fill="none" ry="1.25" cx="300.0" cy="425.0" stroke="#000000"/>
    </g>
    <ellipse fill="none" ID="1005" rx="1.25" cx="482.5" ry="1.25" cy="170.0" stroke="#000000"/>
    <ellipse fill="none" ID="1101" rx="5.0" cx="250.0" Net="10004, 10100, 10101" ry="5.0" cy="330.0"
        stroke="#000000" function="mixer"/>
    <ellipse ActiveColor="0x00bbbb00" fill="none" ID="2101" rx="5.0" cx="250.0" Net="20004, 20100, 20101"
        cy="375.0" ry="5.0" stroke="#000000" function="mixer"/>
    <polyline fill="none" points="595.0,182.5 610.0,197.5 610.0,440.0 530.0,440.0" stroke="#000000"/>
    <line y2="242.5" fill="none" x1="595.0" x2="610.0" y1="227.5" stroke="#000000"/>
    <ellipse rx="1.25" fill="none" ry="1.25" cx="610.0" cy="242.5" stroke="#000000"/>
    <line y2="435.0" fill="none" x1="515.0" x2="60.00002" y1="435.0" stroke="#000000"/>
    <line y2="445.0" fill="none" x1="515.0" x2="485.0" y1="445.0" stroke="#000000"/>
    <text x="395.0" y="449.5"><tspan font-family="'Arial', 'Helvetica', sans-serif" font-size="6"
            xml:space="preserve">VOLUME CONTROL REGISTER</tspan><tspan xml:space="preserve"> </tspan></text>
    <ellipse rx="1.25" fill="none" ry="1.25" cx="58.75" cy="435.0" stroke="#000000"/>
    <line y2="435.0" fill="none" x1="57.5" x2="36.25" y1="435.0" stroke="#000000"/>
    <line y2="437.5" fill="none" x1="36.25" x2="38.75" y1="435.0" stroke="#000000"/>
    <line y2="432.5" fill="none" x1="36.25" x2="38.75" y1="435.0" stroke="#000000"/>
    <g>
        <line y2="427.5" fill="none" x1="31.25" x2="28.75" y1="425.0" stroke="#000000"/>
        <line y2="432.5" fill="none" x1="28.75" x2="33.75" y1="427.5" stroke="#000000"/>
        <line y2="437.5" fill="none" x1="33.75" x2="28.75" y1="432.5" stroke="#000000"/>
        <line y2="442.5" fill="none" x1="28.75" x2="33.75" y1="437.5" stroke="#000000"/>
        <line y2="445.0" fill="none" x1="33.75" x2="31.25" y1="442.5" stroke="#000000"/>
    </g>
    <line y2="453.75" fill="none" x1="31.25" x2="31.25" y1="445.0" stroke="#000000"/>
    <line y2="453.75" fill="none" x1="27.5" x2="35.0" y1="453.75" stroke="#000000"/>
    <line y2="455.0" fill="none" x1="28.75" x2="33.75" y1="455.0" stroke="#000000"/>
    <line y2="456.25" fill="none" x1="30.0" x2="32.5" y1="456.25" stroke="#000000"/>
    <line y2="416.25" fill="none" x1="31.25" x2="31.25" y1="425.0" stroke="#000000"/>
    <g>
        <line y2="416.25" fill="none" x1="33.75" x2="31.25" stroke="#000000" y1="413.75"/>
        <line y2="413.75" fill="none" x1="28.75" x2="33.75" stroke="#000000" y1="408.75"/>
        <line y2="408.75" fill="none" x1="33.75" x2="28.75" stroke="#000000" y1="403.75"/>
        <line y2="403.75" fill="none" x1="28.75" x2="33.75" stroke="#000000" y1="398.75"/>
        <line y2="398.75" fill="none" x1="31.25" x2="28.75" stroke="#000000" y1="396.25"/>
    </g>
    <line y2="388.75" fill="none" x1="31.25" x2="31.25" y1="396.25" stroke="#000000"/>
    <line y2="388.75" fill="none" x1="27.5" x2="35.0" y1="388.75" stroke="#000000"/>
    <text x="35.0" y="394.5"><tspan font-size="6" font-family="'Arial', 'Helvetica', sans-serif"
            xml:space="preserve">AVDD</tspan><tspan xml:space="preserve"> </tspan></text>
    <ellipse rx="1.25" fill="none" ry="1.25" cx="516.2083" cy="435.04166" stroke="#000000"/>
    <ellipse rx="1.25" fill="none" ry="1.25" cx="516.2083" cy="445.04166" stroke="#000000"/>
    <ellipse rx="1.25" fill="none" ry="1.25" cx="528.7083" cy="440.04166" stroke="#000000"/>
    <rect x="517.5" Shift="7" y="435.0" I2CPage="0" transform="matrix(1.0 0.0 0.0 -1.0 0.0 880.0)"
        fill="none" width="10.0" I2CRegister="116" Mask="0x80" height="10.0" stroke="#000000"
        function="toggle"/>
    <polygon function="amplifier" CustomGain="2" stroke="#000000" I2CPage="0" Mask="0x3F" fill="none"
        TextLocation="5, 0" min="-61" step="1" points="572.5,265.0 557.5,265.0 565.0,252.5" Shift="0"
        max="2" I2CRegister="71"/>
    <line y2="490.0" fill="none" x1="60.0" x2="175.0" stroke="#000000" y1="490.0"/>
    <polygon fill="none" points="175.0,490.0 187.5,482.5 187.5,497.5" stroke="#000000"/>
    <line y2="490.0" fill="none" x1="250.0" x2="187.5" stroke="#000000" y1="490.0"/>
    <text x="192.5" y="486.75"><tspan font-family="'Arial', 'Helvetica', sans-serif" font-size="6"
            xml:space="preserve">2V/2.5V/AVDD</tspan><tspan xml:space="preserve"> </tspan></text>
    <text x="19.333334" y="379.25"><tspan font-family="'Arial', 'Helvetica', sans-serif" font-size="8"
            xml:space="preserve">HPROUT</tspan><tspan xml:space="preserve"> </tspan></text>
    <text x="19.333334" y="332.25"><tspan font-size="8" font-family="'Arial', 'Helvetica', sans-serif"
            xml:space="preserve">HPLOUT</tspan><tspan xml:space="preserve"> </tspan></text>
    <text x="13.083333" y="225.58333"><tspan font-family="'Arial', 'Helvetica', sans-serif"
            font-size="8" xml:space="preserve">SPK_RN</tspan><tspan xml:space="preserve"> </tspan></text>
    <text x="13.083333" y="205.91666"><tspan font-size="8" font-family="'Arial', 'Helvetica', sans-serif"
            xml:space="preserve">SPK_RP</tspan><tspan xml:space="preserve"> </tspan></text>
    <text x="13.083333" y="180.58333"><tspan font-size="8" font-family="'Arial', 'Helvetica', sans-serif"
            xml:space="preserve">SPK_LN</tspan><tspan xml:space="preserve"> </tspan></text>
    <text x="13.083333" y="165.58333"><tspan font-size="8" font-family="'Arial', 'Helvetica', sans-serif"
            xml:space="preserve">SPK_LP</tspan><tspan xml:space="preserve"> </tspan></text>
    <ellipse rx="1.25" fill="none" ry="1.25" cx="58.75" cy="490.0" stroke="#000000"/>
    <text x="19.5" file="TSC2117_MICBIAS.jpg" HintYOffset="0" y="492.41666"><tspan font-size="8"
            font-family="'Arial', 'Helvetica', sans-serif" xml:space="preserve">MICBIAS</tspan><tspan
            xml:space="preserve"> </tspan></text>
    <g/>
    <g/>
    <g/>
    <line y2="455.0" fill="none" x1="28.75" x2="33.75" stroke="#000000" y1="455.0"/>
    <line y2="456.25" fill="none" x1="30.0" x2="32.5" stroke="#000000" y1="456.25"/>
    <line y2="453.75" fill="none" x1="27.5" x2="35.0" stroke="#000000" y1="453.75"/>
    <rect x="680.0" y="150.0" fill="none" width="50.0" height="343.3333" stroke="#000000" function="DConf"/>
    <rect function="switch" ID="1005" stroke="#000000" I2CPage="1" width="16.25" fill="none" layout="horizontal"
        height="7.5" Bit="6" Net="10002, 10003" x="435.0" y="162.5" I2CRegister="35"/>
    <ellipse fill="none" ID="1005" rx="1.25" cx="452.5" ry="1.25" cy="170.0" stroke="#000000"/>
    <rect function="switch" stroke="#000000" active="1" I2CPage="1" width="16.25" fill="none"
        layout="horizontal" height="7.5" Bit="4" Net="30000, 30001" x="435.0" y="142.5" ActiveColor="0x00bb00bb"
        I2CRegister="35"/>
    <rect function="switch" stroke="#000000" active="1" I2CPage="1" width="16.25" fill="none"
        layout="horizontal" height="7.5" Bit="5" Net="40000, 40001" x="435.0" y="182.5" ActiveColor="0x00bb00bb"
        I2CRegister="35"/>
    <rect function="switch" ID="2005" stroke="#000000" active="1" I2CPage="1" width="16.25" fill="none"
        layout="horizontal" height="7.5" Bit="1" Net="30000, 30002" x="435.0" y="227.5" I2CRegister="35"
        ActiveColor="0x00bb00bb"/>
    <rect function="switch" ID="1005" stroke="#000000" I2CPage="1" width="16.25" fill="none" layout="horizontal"
        height="7.5" Bit="7" attr_name="" Net="10002, 10100" x="435.0" y="345.0" I2CRegister="35"/>
    <rect function="switch" ID="2006" stroke="#000000" I2CPage="1" width="16.25" fill="none" layout="horizontal"
        height="7.5" Bit="3" Net="20002, 20100" x="435.0" y="390.0" ActiveColor="0x00bbbb00"
        I2CRegister="35"/>
    <rect function="switch" ID="2004" stroke="#000000" I2CPage="1" width="16.25" fill="none" layout="horizontal"
        height="7.5" Bit="2" Net="20002, 20003" x="435.0" y="207.5" I2CRegister="35" ActiveColor="0x00bbbb00"/>
    <text x="684.5" y="235.75"><tspan font-size="8" font-family="'Arial', 'Helvetica', sans-serif"
            xml:space="preserve">Digital</tspan><tspan xml:space="preserve"> </tspan></text>
    <text x="685.0" y="245.75"><tspan font-family="'Arial', 'Helvetica', sans-serif" font-size="8"
            xml:space="preserve">Audio</tspan><tspan xml:space="preserve"> </tspan></text>
    <text x="684.5" y="255.75"><tspan font-family="'Arial', 'Helvetica', sans-serif" font-size="8"
            xml:space="preserve">Processing</tspan><tspan xml:space="preserve"> </tspan></text>
    <text x="684.5" y="275.75"><tspan font-family="'Arial', 'Helvetica', sans-serif" font-size="8"
            xml:space="preserve">Serial</tspan><tspan xml:space="preserve"> </tspan></text>
    <text x="684.5" y="285.75"><tspan font-family="'Arial', 'Helvetica', sans-serif" font-size="8"
            xml:space="preserve">Interface</tspan><tspan xml:space="preserve"> </tspan></text>
    <rect function="switch" stroke="#000000" active="1" I2CPage="0" width="16.25" fill="none"
        layout="horizontal" height="7.5" Bit="4" Net="10000, 10001" x="651.25" y="162.54167"
        I2CRegister="63"/>
    <rect function="switch" stroke="#000000" active="1" I2CPage="0" width="16.25" fill="none"
        layout="horizontal" height="7.5" Bit="2" Net="20000, 20001" x="651.25" y="207.54167"
        I2CRegister="63" ActiveColor="0x00bbbb00"/>
    <rect function="switch" stroke="#000000" active="1" I2CPage="0" width="16.25" fill="none"
        layout="horizontal" height="7.5" Bit="3" Net="10000, 15000" x="651.25" y="177.54167"
        I2CRegister="63"/>
    <rect function="switch" stroke="#000000" active="1" I2CPage="0" width="16.25" fill="none"
        layout="horizontal" height="7.5" Bit="5" Net="20000, 15001" x="651.25" y="192.54167"
        I2CRegister="63" ActiveColor="0x00bbbb00"/>
    <polyline ID="1001" fill="none" points="409.08334,165.0 401.58334,165.0 407.83334,170.0 
        401.58334,175.0 409.08334,175.0" stroke="#000000"/>
    <g Net="10000" active="1">
        <line y2="170.0" fill="none" x1="680.0" x2="670.0" y1="170.0" stroke="#000000"/>
        <ellipse fill="none" rx="1.25" cx="668.75" ry="1.25" cy="170.04167" stroke="#000000" active="1"/>
        <ellipse fill="none" rx="1.25" cx="668.75" ry="1.25" cy="185.04167" stroke="#000000" active="1"/>
        <line fill="none" x1="668.75" x2="668.75" y1="171.25" y2="183.75" stroke="#000000" active="1"/>
    </g>
    <g ActiveColor="0x00bbbb00" Net="20000" active="1">
        <line ActiveColor="0x00bbbb00" fill="none" x1="680.0" x2="670.0" y1="215.0" y2="215.0"
            stroke="#000000" active="1"/>
        <ellipse ActiveColor="0x00bbbb00" fill="none" rx="1.25" cx="668.75" ry="1.25" cy="215.04167"
            stroke="#000000" active="1"/>
        <ellipse ActiveColor="0x00bbbb00" fill="none" rx="1.25" cx="668.75" ry="1.25" cy="200.04167"
            stroke="#000000" active="1"/>
        <line ActiveColor="0x00bbbb00" fill="none" x1="668.75" x2="668.75" y1="213.75" y2="201.25"
            stroke="#000000" active="1"/>
    </g>
    <g Net="10001">
        <ellipse fill="none" ID="1007" rx="1.25" cx="650.0" ry="1.25" cy="170.04167" stroke="#000000"/>
        <line fill="none" x1="640.0" x2="648.75" y1="170.0" y2="170.0" ID="1007" stroke="#000000"/>
    </g>
    <g Net="15000">
        <ellipse fill="none" ID="1008" rx="1.25" cx="650.0" ry="1.25" cy="185.04167" stroke="#000000"/>
        <polyline ID="1008" fill="none" points="648.75,185.0 645.0,185.0 630.0,200.0 630.0,205.0"
            stroke="#000000"/>
    </g>
    <g Net="15001">
        <ellipse ActiveColor="0x00bbbb00" fill="none" ID="2008" rx="1.25" cx="650.0" cy="200.04167"
            ry="1.25" stroke="#000000"/>
        <polyline ActiveColor="0x00bbbb00" ID="2008" fill="none" points="648.75,200.0 645.0,200.0 
            630.0,185.0 630.0,180.0" stroke="#000000"/>
    </g>
    <g Net="20001">
        <ellipse ActiveColor="0x00bbbb00" fill="none" ID="2007" rx="1.25" cx="650.0" cy="215.04167"
            ry="1.25" stroke="#000000"/>
        <line ActiveColor="0x00bbbb00" fill="none" x1="640.0" x2="648.75" y1="215.0" y2="215.0" ID="2007"
            stroke="#000000"/>
    </g>
    <polyline ID="1006" fill="none" points="633.75,165.0 626.25,165.0 632.5,170.0 626.25,175.0 
        633.75,175.0" stroke="#000000"/>
    <polyline ActiveColor="0x00bbbb00" ID="2006" fill="none" points="633.75,210.0 626.25,210.0 
        632.5,215.0 626.25,220.0 633.75,220.0" stroke="#000000"/>
    <rect x="580.0" y="157.5" fill="none" width="25.0" ID="1006" height="25.0" Net="10002" stroke="#000000"
        function="DAC_L"/>
    <g Net="10002">
        <line fill="none" x1="620.0" x2="605.0" y1="170.0" ID="1006" y2="170.0" stroke="#000000"/>
        <line fill="none" x1="580.0" x2="560.0" y1="170.0" y2="170.0" ID="1006" stroke="#000000"/>
        <ellipse fill="none" ID="1005" rx="10.0" cx="550.0" ry="10.0" cy="170.0" stroke="#000000"/>
        <line fill="none" x1="540.0" x2="527.5" y1="170.0" ID="1005" y2="170.0" stroke="#000000"/>
        <polygon ID="1005" fill="none" points="497.5,170.0 507.5,160.0 527.5,160.0 527.5,180.0 
            507.5,180.0" stroke="#000000"/>
        <line fill="none" x1="497.5" x2="453.75" y1="170.0" ID="1005" y2="170.0" stroke="#000000"/>
        <line fill="none" x1="482.5" x2="482.5" y1="170.0" ID="1005" y2="352.5" stroke="#000000"/>
        <ellipse fill="none" ID="1005" rx="1.25" cx="452.5" ry="1.25" cy="352.5" stroke="#000000"/>
        <line fill="none" x1="482.5" x2="453.75" y1="352.5" ID="1005" y2="352.5" stroke="#000000"/>
    </g>
    <rect ActiveColor="0x00bbbb00" x="580.0" y="202.5" fill="none" width="25.0" ID="2006" height="25.0"
        Net="20002" stroke="#000000" function="DAC_R"/>
    <g Net="20002">
        <line ActiveColor="0x00bbbb00" fill="none" x1="620.0" x2="605.0" y1="215.0" y2="215.0" ID="2006"
            stroke="#000000"/>
        <line ActiveColor="0x00bbbb00" fill="none" x1="580.0" x2="560.0" y1="215.0" y2="215.0" ID="2006"
            stroke="#000000"/>
        <ellipse ActiveColor="0x00bbbb00" fill="none" ID="2006" rx="10.0" cx="550.0" cy="215.0" ry="10.0"
            stroke="#000000"/>
        <line ActiveColor="0x00bbbb00" fill="none" x1="540.0" x2="527.5" y1="215.0" y2="215.0" ID="2006"
            stroke="#000000"/>
        <polygon ActiveColor="0x00bbbb00" ID="2006" fill="none" points="497.5,215.0 507.5,205.0 
            527.5,205.0 527.5,225.0 507.5,225.0" stroke="#000000"/>
        <ellipse ActiveColor="0x00bbbb00" fill="none" ID="2006" rx="1.25" cx="452.5" ry="1.25" cy="397.5"
            stroke="#000000"/>
        <ellipse ActiveColor="0x00bbbb00" fill="none" ID="2006" rx="1.25" cx="492.5" cy="215.0" ry="1.25"
            stroke="#000000"/>
        <polyline ActiveColor="0x00bbbb00" ID="2006" fill="none" points="453.75,397.5 492.5,397.5 
            492.5,215.0" stroke="#000000"/>
        <line ActiveColor="0x00bbbb00" fill="none" x1="497.5" x2="453.75" y1="215.0" y2="215.0" ID="2006"
            stroke="#000000"/>
        <ellipse ActiveColor="0x00bbbb00" fill="none" ID="2006" rx="1.25" cx="452.5" cy="215.0" ry="1.25"
            stroke="#000000"/>
    </g>
    <g Net="10003">
        <line fill="none" x1="415.0" x2="432.5" y1="170.0" y2="170.0" ID="1003" stroke="#000000"/>
        <ellipse fill="none" ID="1003" rx="1.25" cx="433.75" ry="1.25" cy="170.0" stroke="#000000"/>
    </g>
    <g ActiveColor="0x00bb00bb" Net="30000" active="1">
        <ellipse ActiveColor="0x00bb00bb" fill="none" rx="1.25" cx="452.5" ry="1.25" cy="150.0"
            stroke="#000000" active="1"/>
        <line ActiveColor="0x00bb00bb" fill="none" x1="453.75" x2="471.25" y1="150.0" y2="150.0"
            stroke="#000000" active="1"/>
    </g>
    <g ActiveColor="0x00bb00bb" active="1" Net="30000">
        <ellipse ActiveColor="0x00bb00bb" fill="none" rx="1.25" cx="452.5" ry="1.25" cy="235.0"
            stroke="#000000" active="1"/>
        <line ActiveColor="0x00bb00bb" fill="none" x1="453.75" x2="472.5" y1="235.0" y2="235.0"
            stroke="#000000" active="1"/>
    </g>
    <g ActiveColor="0x00bb00bb" Net="40000" active="1">
        <ellipse ActiveColor="0x00bb00bb" fill="none" rx="1.25" cx="452.5" ry="1.25" cy="190.0"
            stroke="#000000" active="1"/>
        <line ActiveColor="0x00bb00bb" fill="none" x1="453.75" x2="472.5" y1="190.0" y2="190.0"
            stroke="#000000" active="1"/>
    </g>
    <g Net="30001">
        <polyline ActiveColor="0x00bb00bb" ID="1002" fill="none" points="432.5,150.0 425.0,150.0 
            411.25,163.75" stroke="#000000"/>
        <ellipse ActiveColor="0x00bb00bb" fill="none" ID="1002" rx="1.25" cx="433.75" ry="1.25" cy="150.0"
            stroke="#000000"/>
    </g>
    <g Net="40001">
        <polyline ID="1004" ActiveColor="0x00bb00bb" fill="none" points="432.5,190.0 425.0,190.0 
            411.25,176.25" stroke="#000000"/>
        <ellipse ActiveColor="0x00bb00bb" fill="none" ID="1004" rx="1.25" cx="433.75" ry="1.25" cy="190.0"
            stroke="#000000"/>
    </g>
    <g Net="20003">
        <ellipse ActiveColor="0x00bbbb00" fill="none" ID="2002" rx="1.25" cx="433.75" cy="215.0" ry="1.25"
            stroke="#000000"/>
        <line ActiveColor="0x00bbbb00" fill="none" x1="432.5" x2="415.0" y1="215.0" y2="215.0" ID="2002"
            stroke="#000000"/>
    </g>
    <g Net="30001">
        <polyline ActiveColor="0x00bb00bb" ID="2003" fill="none" points="432.5,235.0 425.0,235.0 
            411.25,221.25" stroke="#000000"/>
        <ellipse ActiveColor="0x00bb00bb" fill="none" ID="2003" rx="1.25" cx="433.75" cy="235.0" ry="1.25"
            stroke="#000000"/>
    </g>
    <polygon function="amplifier" CustomGain="1" stroke="#000000" I2CPage="1" Mask="0x7F" fill="none"
        TextLocation="18, 20" min="-78" step="0.61" points="300.0,155.0 300.0,185.0 275.0,170.0"
        Shift="0" Net="10004" max="0" I2CRegister="38"/>
    <polygon function="amplifier" CustomGain="1" stroke="#000000" I2CPage="1" Mask="0x7F" fill="none"
        TextLocation="18, 20" min="-78" step="0.61" points="300.0,315.0 300.0,345.0 275.0,330.0"
        Shift="0" Net="10004" max="0" I2CRegister="36"/>
    <g Net="10004">
        <line fill="none" x1="275.0" x2="200" y1="170.0" ID="1001" y2="170.0" stroke="#000000"/>
        <line fill="none" x1="275.0" x2="255.0" y1="330.0" y2="330.0" ID="1001" stroke="#000000"/>
        <line y2="155.0" fill="none" x1="287.5" x2="280.0" y1="162.5" stroke="#000000"/>
        <line y2="335.0" fill="none" x1="307.5" x2="300.0" stroke="#000000" y1="342.5"/>
        <polyline ID="1001" fill="none" points="300.0,330.0 365.0,330.0 365.0,170.0" stroke="#000000"/>
        <line fill="none" x1="395.0" x2="300.0" y1="170.0" ID="1001" y2="170.0" stroke="#000000"/>
        <ellipse fill="none" ID="1001" rx="1.25" cx="365.0" ry="1.25" cy="170.0" stroke="#000000"/>
    </g>
    <polygon function="amplifier" CustomGain="1" stroke="#000000" I2CPage="1" Mask="0x7F" fill="none"
        TextLocation="18, 20" min="-78" step="0.61" points="300.0,200.0 300.0,230.0 275.0,215.0"
        Shift="0" Net="20004" max="0" I2CRegister="39" ActiveColor="0x00bbbb00"/>
    <polygon function="amplifier" CustomGain="1" stroke="#000000" I2CPage="1" Mask="0x7F" fill="none"
        TextLocation="18, 20" min="-78" step="0.61" points="300.0,360.0 300.0,390.0 275.0,375.0"
        Shift="0" Net="20004" max="0" I2CRegister="37" ActiveColor="0x00bbbb00"/>
    <g Net="20004">
        <line ActiveColor="0x00bbbb00" fill="none" x1="275.0" x2="200" y1="215.0" y2="215.0" ID="2001"
            stroke="#000000"/>
        <line ActiveColor="0x00bbbb00" fill="none" x1="275.0" x2="255.0" y1="375.0" y2="375.0" ID="2001"
            stroke="#000000"/>
        <line y2="200.0" fill="none" x1="287.5" x2="280.0" y1="207.5" stroke="#000000"/>
        <line y2="380.0" fill="none" x1="307.5" x2="300.0" stroke="#000000" y1="387.5"/>
        <line ActiveColor="0x00bbbb00" fill="none" x1="395.0" x2="300.0" y1="215.0" y2="215.0" ID="2001"
            stroke="#000000"/>
        <ellipse ActiveColor="0x00bbbb00" fill="none" ID="2001" rx="1.25" cx="375.0" cy="215.0" ry="1.25"
            stroke="#000000"/>
        <polyline ActiveColor="0x00bbbb00" ID="2001" fill="none" points="300.0,375.0 375.0,375.0 
            375.0,215.0" stroke="#000000"/>
    </g>
    <g Net="10100">
        <ellipse fill="none" ID="1100" rx="1.25" cx="433.75" ry="1.25" cy="352.5" stroke="#000000"/>
        <polyline ID="1100" fill="none" points="432.5,352.5 250.0,352.5 250.0,335.0" stroke="#000000"/>
    </g>
    <g Net="20100">
        <ellipse ActiveColor="0x00bbbb00" fill="none" ID="2100" rx="1.25" cx="433.75" ry="1.25" cy="397.5"
            stroke="#000000"/>
        <polyline ActiveColor="0x00bbbb00" ID="2100" fill="none" points="432.5,397.5 250.0,397.5 
            250.0,380.0" stroke="#000000"/>
    </g>
    <polygon function="amplifier" stroke="#000000" I2CPage="1" Mask="0x78" fill="none" TextLocation="18, 20"
        min="0" step="1" points="200.0,315.0 200.0,345.0 175.0,330.0" Shift="3" Net="10101" max="9"
        I2CRegister="40"/>
    <g Net="10101">
        <ellipse fill="none" ID="1101" rx="1.25" cx="58.75" ry="1.25" cy="330.0" stroke="#000000"/>
        <line fill="none" x1="175.0" x2="60.0" y1="330.0" ID="1101" y2="330.0" stroke="#000000"/>
        <line y2="335.0" fill="none" x1="207.5" x2="200.0" y1="342.5" stroke="#000000"/>
        <line fill="none" x1="245.0" x2="200.0" y1="330.0" ID="1101" y2="330.0" stroke="#000000"/>
    </g>
    <polygon function="amplifier" stroke="#000000" I2CPage="1" Mask="0x78" fill="none" TextLocation="18, 20"
        min="0" step="1" points="200.0,360.0 200.0,390.0 175.0,375.0" Shift="3" Net="20101" max="9"
        I2CRegister="41" ActiveColor="0x00bbbb00"/>
    <g Net="20101">
        <line ActiveColor="0x00bbbb00" fill="none" x1="245.0" x2="200.0" y1="375.0" y2="375.0" ID="2101"
            stroke="#000000"/>
        <line y2="360.0" fill="none" x1="187.5" x2="180.0" stroke="#000000" y1="367.5"/>
        <line ActiveColor="0x00bbbb00" fill="none" x1="175.0" x2="60.0" y1="375.0" y2="375.0" ID="2101"
            stroke="#000000"/>
        <ellipse ActiveColor="0x00bbbb00" fill="none" ID="2101" rx="1.25" cx="58.75" cy="375.0" ry="1.25"
            stroke="#000000"/>
    </g>
    <polygon function="amplifier" stroke="#000000" I2CPage="1" Mask="0x18" fill="none" TextLocation="18, 20"
        min="6" step="6" points="200.0,155.0 200.0,185.0 175.0,170.0" Shift="3" Net="10004" max="24"
        I2CRegister="42"/>
    <g Net="10004">
        <line y2="175.0" fill="none" x1="207.5" x2="200.0" stroke="#000000" y1="182.5"/>
        <line y2="155.0" fill="none" x1="187.5" x2="180.0" stroke="#000000" y1="162.5"/>
        <ellipse fill="none" ID="1000" rx="1.6666666" cx="180.0" ry="1.6666666" cy="175.0" stroke="#000000"/>
        <polyline ID="1000" fill="none" points="180.0,167.5 180.0,162.5 57.5,162.5" stroke="#000000"/>
        <polyline ID="1000" fill="none" points="180.0,176.66667 180.0,177.5 57.5,177.5" stroke="#000000"/>
        <ellipse fill="none" ID="1000" rx="1.25" cx="56.25" ry="1.25" cy="177.5" stroke="#000000"/>
        <ellipse fill="none" ID="1000" rx="1.25" cx="56.25" ry="1.25" cy="162.5" stroke="#000000"/>
    </g>
    <polygon function="amplifier" stroke="#000000" I2CPage="1" Mask="0x18" fill="none" TextLocation="18, 20"
        min="6" step="6" points="200.0,200.0 200.0,230.0 175.0,215.0" Shift="3" Net="20004" max="24"
        I2CRegister="43" ActiveColor="0x00bbbb00"/>
    <g Net="20004">
        <line y2="200.0" fill="none" x1="187.5" x2="180.0" y1="207.5" stroke="#000000"/>
        <line y2="220.0" fill="none" x1="207.5" x2="200.0" y1="227.5" stroke="#000000"/>
        <ellipse ActiveColor="0x00bbbb00" fill="none" ID="2000" rx="1.6666666" cx="180.0" cy="220.0"
            ry="1.6666666" stroke="#000000"/>
        <polyline ActiveColor="0x00bbbb00" ID="2000" fill="none" points="180.0,221.66667 180.0,222.5 
            57.5,222.5" stroke="#000000"/>
        <polyline ActiveColor="0x00bbbb00" ID="2000" fill="none" points="180.0,212.5 180.0,207.5 
            57.5,207.5" stroke="#000000"/>
        <ellipse ActiveColor="0x00bbbb00" fill="none" ID="2000" rx="1.25" cx="56.25" cy="222.5" ry="1.25"
            stroke="#000000"/>
        <ellipse ActiveColor="0x00bbbb00" fill="none" ID="2000" rx="1.25" cx="56.25" cy="207.5" ry="1.25"
            stroke="#000000"/>
    </g>
    <polyline ID="1005" fill="none" points="553.75,165.0 546.25,165.0 552.5,170.0 546.25,175.0 
        553.75,175.0" stroke="#000000"/>
    <polyline ActiveColor="0x00bbbb00" ID="2006" fill="none" points="553.75,210.0 546.25,210.0 
        552.5,215.0 546.25,220.0 553.75,220.0" stroke="#000000"/>
    <text x="507.0" y="173.25"><tspan font-size="8" font-family="'Arial', 'Helvetica', sans-serif"
            xml:space="preserve">DAC</tspan><tspan xml:space="preserve"> </tspan></text>
    <text x="507.0" y="218.25"><tspan font-family="'Arial', 'Helvetica', sans-serif" font-size="8"
            xml:space="preserve">DAC</tspan><tspan xml:space="preserve"> </tspan></text>
</svg>